<svg id="_81" data-name="81" xmlns="http://www.w3.org/2000/svg" width="1799.03" height="1016.17" viewBox="0 0 1799.03 1016.17">
  <defs>
    <style>
      .cls-1 {
        fill: #5c85f9;
      }
    </style>
  </defs>
  <g>
    <path class="cls-1" d="M1235,537.11a25.34,25.34,0,0,1-7.24-1c-33.7-10-37.53-89.48-41.59-173.61s-8.24-171.14-44.6-183.33c-23.9-8-59.34,16.65-108.33,75.39-50.33,60.34-88.57,90-116.35,90A35.08,35.08,0,0,1,906,342.82c-39.82-13-45.44-99.4-50.39-175.64-4-60.88-7.38-113.47-26.74-118.4-13.32-3.39-33.51,16.68-61.76,61.36-32,50.59-68.06,76.24-107.23,76.24h-.74c-22.74-.19-47-9-72.06-26.27-21.43-14.74-44.09-36.06-67.37-63.39C477.17,46.81,440.67-13.07,414-56.79c-20-32.83-34.46-56.56-39.13-55.13-.92.28-1.94,1.93-1.66,8.17l-.75,0c-.25-5.56.44-8.39,2.19-8.92,5.22-1.59,18.31,19.88,40,55.45,51.56,84.58,147.54,242,244.47,242.81,39.19.32,75.29-25.21,107.33-75.89,28.44-45,48.91-65.17,62.57-61.69,19.89,5.07,23.33,57.91,27.3,119.09,4.94,76,10.55,162.14,49.88,175,28,9.14,69.38-19.66,126.41-88,49.22-59,84.92-83.74,109.15-75.62,36.84,12.35,41,99.61,45.11,184,2,40.33,4,82,9.6,113.78,6.3,35.39,16.58,54.74,31.45,59.15,25.5,7.58,66.09-27.77,124-108l.61.44C1299.58,501.17,1261,537.11,1235,537.11Z" transform="translate(-36.33 467.02)"/>
    <path class="cls-1" d="M1249.19,533.48a26.35,26.35,0,0,1-7.48-1c-34.55-10-39.78-89-45.3-172.58s-11.24-170-48.51-182.27c-24.3-8-59.63,15.83-108,72.89-56.49,66.66-98,94.58-126.78,85.35-40.83-13.08-48-99-54.3-174.75-5-60.52-9.39-112.78-29.24-117.67-13.5-3.33-33.54,16.2-61.22,59.72C737.29,152,701.76,176.8,662.77,176.8h-.08c-23.17,0-48-8.81-73.9-26.13-22.11-14.79-45.6-36.26-69.83-63.81-44.24-50.32-82.5-110.7-110.43-154.8-20.86-32.92-35.93-56.71-40.57-55.2-.89.29-1.87,1.92-1.49,8l-.75.05c-.34-5.44.3-8.23,2-8.78,5.19-1.68,18.84,19.84,41.44,55.51C463.25,17,563.92,176,662.69,176.05h.08c38.72,0,74-24.66,105-73.31,27.88-43.82,48.17-63.47,62-60,20.37,5,24.74,57.53,29.81,118.34,6.29,75.54,13.43,161.17,53.78,174.1,28.5,9.12,69.71-18.72,126-85.13,48.57-57.31,84.16-81.23,108.78-73.11,37.75,12.45,43.48,99.12,49,182.93,2.65,40.07,5.39,81.51,11.68,113.06,7,35.18,17.84,54.43,33.09,58.85,25.94,7.53,66.27-26.8,123.3-104.93l.61.44C1313.77,498.56,1275.47,533.48,1249.19,533.48Z" transform="translate(-36.33 467.02)"/>
    <path class="cls-1" d="M1263.56,530.13a28.44,28.44,0,0,1-7.72-1c-35.43-10-42.06-88.52-49.08-171.63s-14.26-168.9-52.47-181.28c-24.71-8-59.91,15-107.64,70.42C998,303.08,960.3,330.82,932,330.82a38.77,38.77,0,0,1-11.73-1.76c-41.87-13.17-50.58-98.58-58.26-173.95-6.14-60.17-11.44-112.14-31.79-117-13.71-3.26-33.56,15.75-60.69,58.12-30.06,47-64.84,70.9-103.39,71.13h-.58c-100.81,0-206.15-160.25-262.8-246.43-21.71-33-37.39-56.89-42-55.3-.87.3-1.81,1.91-1.33,7.89l-.74.06c-.44-5.33.14-8.08,1.82-8.66,5.17-1.78,19.37,19.82,42.89,55.6C460,6.58,565.2,166.62,665.6,166.62h.58c38.27-.23,72.85-24.05,102.76-70.78,27.32-42.68,47.44-61.8,61.5-58.45,20.87,5,26.19,57.19,32.35,117.65,7.66,75.13,16.35,160.29,57.74,173.31,29,9.11,70-17.79,125.56-82.24,47.94-55.65,83.4-78.77,108.43-70.65,38.69,12.54,46,98.66,53,181.94,3.37,39.83,6.84,81,13.78,112.4,7.74,35,19.11,54.14,34.75,58.57,26.38,7.46,66.47-25.86,122.58-101.87l.6.45C1328.09,496.21,1290.11,530.13,1263.56,530.13Z" transform="translate(-36.33 467.02)"/>
    <path class="cls-1" d="M1278.06,527.06a29.81,29.81,0,0,1-8-1c-36.34-10-44.39-88.1-52.91-170.75s-17.31-167.91-56.48-180.39c-25.11-8-60.2,14.24-107.3,68-47.87,54.6-85.27,81.42-113.76,81.42a41.16,41.16,0,0,1-12.18-1.79c-42.94-13.27-53.22-98.26-62.28-173.24C858,89.39,851.69,37.69,830.83,32.89c-13.92-3.2-33.59,15.3-60.16,56.54-29,45.07-63,68.17-101.07,68.65h-1.25C565.93,158.1,456-3.29,396.82-90.15c-22.58-33.15-38.9-57.09-43.48-55.43-.85.31-1.74,1.91-1.16,7.75l-.74.08c-.52-5.22,0-7.93,1.64-8.53,5.14-1.87,19.9,19.8,44.36,55.7C456.53-3.83,566.33,157.34,668.35,157.34h1.24c37.76-.48,71.56-23.46,100.45-68.3,26.76-41.55,46.7-60.15,61-56.87,21.37,4.92,27.66,56.86,34.93,117,9,74.76,19.29,159.49,61.76,172.61,29.42,9.09,70.36-16.89,125.15-79.41,47.32-54,82.67-76.31,108.09-68.21,39.65,12.63,48.47,98.24,57,181,4.08,39.62,8.31,80.59,15.9,111.8,8.48,34.8,20.4,53.87,36.46,58.31,26.79,7.4,66.65-24.94,121.85-98.85l.6.45C1342.53,494.13,1304.87,527.06,1278.06,527.06Z" transform="translate(-36.33 467.02)"/>
    <path class="cls-1" d="M1292.7,524.26a31.62,31.62,0,0,1-8.2-1c-37.26-10-46.75-87.72-56.79-170s-20.4-167-60.57-179.58c-25.49-8-60.49,13.47-107,65.6-54.29,60.86-95.35,86-125.52,76.84-44-13.36-55.91-98-66.38-172.61-8.36-59.58-15.58-111-37-115.78-14.1-3.13-33.61,14.86-59.63,55-28,43.22-61.25,65.5-98.74,66.22-.63,0-1.28,0-1.92,0-104,0-218.66-162.6-280.42-250.2-23.46-33.27-40.41-57.31-44.95-55.56-.83.32-1.67,1.89-1,7.61l-.75.09c-.61-5.11-.14-7.79,1.47-8.4,5.1-2,20.43,19.8,45.83,55.83C452.87-14.2,567.37,148.2,671,148.2c.64,0,1.27,0,1.91,0,37.22-.72,70.23-22.88,98.12-65.88C797.24,41.88,817,23.8,831.46,27,853.35,31.84,860.6,83.54,869,143.4c10.44,74.42,22.27,158.77,65.85,172,29.87,9.06,70.68-16,124.75-76.62,46.71-52.37,82-73.89,107.76-65.82,40.64,12.72,51,97.87,61.09,180.21,4.81,39.42,9.79,80.19,18.06,111.25,9.22,34.64,21.71,53.64,38.19,58.07,27.21,7.33,66.83-24,121.14-95.88l.6.46C1357.11,492.3,1319.76,524.26,1292.7,524.26Z" transform="translate(-36.33 467.02)"/>
    <path class="cls-1" d="M1307.49,521.74a33.09,33.09,0,0,1-8.44-1.06c-38.22-10-49.16-87.36-60.75-169.24-11.55-81.7-23.51-166.18-64.7-178.86-25.88-8-60.77,12.73-106.66,63.25-53.58,59-94.52,83.21-125.13,74.1-45.17-13.46-58.64-97.72-70.54-172.06-9.48-59.34-17.68-110.58-39.61-115.25C817.37,19.57,798,37.06,772.55,76.08c-27,41.42-59.48,62.9-96.39,63.85-.86,0-1.73,0-2.59,0C568,140,448.5-23.94,384.08-112.32c-24.34-33.41-41.94-57.55-46.44-55.73-.8.33-1.6,1.89-.83,7.49l-.74.11c-.69-5-.28-7.66,1.29-8.29,5.05-2,21,19.8,47.33,56,64.86,89,185.59,254.69,291.45,252,36.65-.94,68.87-22.31,95.78-63.51,25.68-39.31,45.27-56.91,59.9-53.79,22.43,4.78,30.66,56.26,40.2,115.87,11.85,74.13,25.29,158.14,70,171.46,30.31,9,71-15.14,124.35-73.88,46.11-50.76,81.25-71.52,107.44-63.46,41.65,12.81,53.64,97.53,65.23,179.46,5.55,39.25,11.29,79.84,20.24,110.77,10,34.5,23,53.42,40,57.85,27.64,7.25,67-23.16,120.44-93l.6.45C1371.84,490.74,1334.79,521.74,1307.49,521.74Z" transform="translate(-36.33 467.02)"/>
    <path class="cls-1" d="M1322.43,519.5a34.9,34.9,0,0,1-8.67-1.07c-17.88-4.56-31.32-23-42.29-58.16-9.65-30.86-16.17-71.32-22.48-110.44-13.11-81.34-26.66-165.45-68.9-178.22-26.26-7.93-61,12-106.36,60.93-45.5,49.15-82.05,73.3-111.15,73.3a48.43,48.43,0,0,1-13.58-1.9c-46.34-13.55-61.44-97.52-74.77-171.59C863.59,73.23,854.4,22.17,831.92,17.57c-14.46-3-33.63,14-58.58,52-26.1,39.67-57.74,60.36-94,61.51-1.08,0-2.18,0-3.26,0-107.2,0-231.58-165.28-298.71-254.49-25.26-33.56-43.51-57.8-48-55.91-.78.33-1.53,1.87-.66,7.36l-.74.12c-.78-4.93-.42-7.52,1.11-8.17,5-2.11,21.51,19.81,48.86,56.15C445-34.74,569.23,130.35,676.05,130.35c1.08,0,2.15,0,3.24,0,36-1.14,67.46-21.72,93.42-61.17,25.14-38.22,44.56-55.33,59.36-52.3,23,4.71,32.21,56,42.9,115.38,13.29,73.87,28.35,157.59,74.24,171,30.75,9,71.3-14.3,124-71.18,45.53-49.17,80.56-69.17,107.12-61.14,42.7,12.9,56.29,97.24,69.43,178.81,6.3,39.1,12.82,79.53,22.45,110.34,10.74,34.37,24.41,53.22,41.77,57.66,28,7.14,67.19-22.32,119.75-90.09l.59.46C1386.71,489.44,1350,519.5,1322.43,519.5Z" transform="translate(-36.33 467.02)"/>
    <path class="cls-1" d="M1337.53,517.52a36.76,36.76,0,0,1-8.9-1.06c-18.34-4.56-32.36-23-44.14-58-10.35-30.77-17.65-71.09-24.72-110.08-14.67-81-29.85-164.79-73.17-177.65-26.64-7.92-61.32,11.27-106,58.65s-81,70.66-110.27,70.67a50.81,50.81,0,0,1-14.07-1.94c-47.54-13.65-64.3-97.36-79.09-171.21-11.8-58.94-22-109.84-45-114.36C817.44,9.69,798.45,26.21,774,63.07c-25.16,38-56,57.9-91.66,59.23-1.29,0-2.61.08-3.92.08-108.77,0-238.2-166.75-308.12-256.83-26.18-33.72-45.1-58.08-49.5-56.13-.75.34-1.46,1.87-.5,7.24l-.74.13c-.86-4.83-.56-7.39.94-8,4.94-2.2,22.05,19.84,50.39,56.35,69.84,90,199.13,256.54,307.53,256.54,1.3,0,2.6,0,3.9-.08,35.4-1.32,66-21.14,91.06-58.89C798,25.52,817.26,8.89,832.23,11.83c23.54,4.63,33.78,55.75,45.63,115,14.75,73.64,31.46,157.12,78.56,170.64C987.6,306.37,1028,284,1080,228.89c44.94-47.6,79.87-66.85,106.8-58.85,43.77,13,59,97,73.7,178.23,7.06,39,14.36,79.26,24.69,110,11.53,34.25,25.79,53.05,43.61,57.48,28.41,7.06,67.36-21.48,119.06-87.26l.59.46C1401.73,488.39,1365.29,517.52,1337.53,517.52Z" transform="translate(-36.33 467.02)"/>
    <path class="cls-1" d="M1352.8,515.83a38.72,38.72,0,0,1-9.12-1.07c-18.81-4.55-33.44-22.92-46-57.81-11.06-30.68-19.16-70.88-27-109.77C1254.38,266.45,1237.56,183,1193.13,170c-27-7.87-61.58,10.58-105.74,56.41-51.51,53.48-92.06,75.1-124,66.11-48.77-13.74-67.21-97.24-83.48-170.91-13-58.78-24.19-109.54-47.81-114-14.8-2.78-33.63,13.26-57.53,49.06-24.27,36.32-54.31,55.5-89.31,57-1.51.06-3,.1-4.56.1C570.42,113.79,435.81-54.52,363-145.52c-27.1-33.89-46.69-58.38-51-56.36-.74.35-1.4,1.86-.35,7.13l-.74.15c-.94-4.75-.69-7.28.77-8,4.88-2.25,22.6,19.88,51.94,56.57,73.7,92.15,210.9,263.67,321.66,258.93C720,111.45,749.87,92.38,774,56.27S817.15,4,832.29,6.89c24.11,4.53,35.37,55.52,48.4,114.56,16.23,73.46,34.62,156.73,83,170.35,31.6,8.91,71.9-12.65,123.2-65.91,44.37-46,79.21-64.57,106.49-56.6,44.87,13.09,61.74,96.79,78.05,177.74s31.66,157.14,72.47,167c28.8,7,67.52-20.68,118.37-84.48l.59.47C1416.92,487.6,1380.79,515.82,1352.8,515.83Z" transform="translate(-36.33 467.02)"/>
    <path class="cls-1" d="M1368.24,514.4a40.66,40.66,0,0,1-9.34-1.07c-19.3-4.53-34.54-22.86-48-57.66-11.79-30.61-20.7-70.72-29.32-109.52-17.88-80.48-36.36-163.71-81.93-176.78-27.36-7.85-61.84,9.88-105.43,54.2-43.23,43.94-78.92,65.54-108.48,65.55a56.23,56.23,0,0,1-15.08-2c-50.05-13.85-70.19-97.18-88-170.7C868.56,57.75,856.31,7.09,832.1,2.74c-15-2.69-33.6,12.89-57,47.63s-52.65,53.18-87,54.83c-1.72.08-3.46.12-5.19.12-111.89,0-251.79-170-327.49-261.92-28.05-34.07-48.33-58.68-52.6-56.61-.71.35-1.32,1.85-.19,7L302-206c-1-4.66-.83-7.16.6-7.85,4.62-2.23,20.63,16.86,53.51,56.8,76.79,93.29,219.73,266.91,332.06,261.53,34.06-1.64,63.12-20,86.36-54.49,23.58-35,42.48-50.7,57.75-48,24.7,4.43,37,55.31,51.24,114.23,17.73,73.32,37.82,156.42,87.44,170.15,32,8.86,72.18-11.86,122.82-63.34,43.81-44.53,78.54-62.32,106.18-54.39,46,13.19,64.53,96.64,82.45,177.34s34.83,156.77,76.71,166.61c29.17,6.85,67.67-19.89,117.69-81.75l.59.47C1432.27,487.07,1396.43,514.39,1368.24,514.4Z" transform="translate(-36.33 467.02)"/>
    <path class="cls-1" d="M1383.88,513.25a43.25,43.25,0,0,1-9.57-1.06c-19.53-4.46-35.85-23.28-49.91-57.55-12.53-30.55-22.27-70.59-31.68-109.32C1273.21,265,1253,182,1206.29,168.84c-27.69-7.81-62.08,9.21-105.13,52-50.2,49.93-90.49,69.89-123.17,61-51.34-14-73.22-97.16-92.53-170.57C870.06,52.73,856.76,2.15,831.94-2.1c-15.1-2.59-33.57,12.54-56.46,46.24-22.53,33.19-51,50.91-84.59,52.7-1.92.1-3.86.15-5.8.15-113.4,0-258.73-171.7-337.43-264.67-29-34.27-50-59-54.19-56.89-.69.35-1.26,1.83,0,6.91l-.73.17c-1.1-4.58-1-7,.43-7.75,4.55-2.31,21.1,16.9,55.1,57.07C428.19-73.71,577,102.12,690.85,96.09c33.35-1.77,61.62-19.39,84-52.37,23.07-34,41.79-49.2,57.21-46.56,25.29,4.33,38.65,55.13,54.12,114,19.25,73.21,41.07,156.19,92,170,32.41,8.81,72.46-11.09,122.45-60.81,43.25-43,77.88-60.11,105.87-52.22,47.15,13.29,67.38,96.53,87,177s38,156.49,81,166.31c29.53,6.74,67.81-19.13,117-79.07l.58.47C1447.8,486.81,1412.26,513.24,1383.88,513.25Z" transform="translate(-36.33 467.02)"/>
    <path class="cls-1" d="M1399.71,512.37a45.25,45.25,0,0,1-9.79-1.05c-20-4.45-37-23.24-51.92-57.45-13.28-30.51-23.85-70.51-34.08-109.18-21.17-80.13-43.07-163-91-176.27-28-7.77-62.33,8.55-104.83,49.89-41.75,40.61-76.84,60.59-106.63,60.59a62.38,62.38,0,0,1-16.16-2.08c-52.67-14.08-76.32-97.2-97.18-170.53-16.64-58.51-31-109-56.44-113.19C816.46-9.38,798.16,5.29,775.77,38c-21.71,31.69-49.38,48.72-82.26,50.61-2.11.12-4.24.19-6.37.19-114.91,0-265.81-173.53-347.57-267.55-30-34.48-51.66-59.41-55.81-57.2-.66.35-1.19,1.81.11,6.8l-.72.19c-1.18-4.51-1.09-6.94.26-7.65,4.49-2.36,21.58,16.95,56.73,57.36C423.33-83.59,578.21,94.48,693.47,87.84,726.1,86,753.58,69,775.15,37.55c22.57-32.95,41.1-47.72,56.66-45.19,25.9,4.23,40.33,55,57.05,113.72,20.8,73.15,44.38,156.05,96.65,170,32.79,8.76,72.72-10.32,122.06-58.32,42.71-41.54,77.24-57.92,105.56-50.07,48.34,13.4,70.29,96.46,91.52,176.79S1346,500.8,1390.08,510.58c29.9,6.63,67.94-18.37,116.32-76.42l.58.48C1463.5,486.8,1428.27,512.37,1399.71,512.37Z" transform="translate(-36.33 467.02)"/>
    <path class="cls-1" d="M1415.74,511.77a47.36,47.36,0,0,1-10-1c-20.55-4.43-38.21-23.2-54-57.38-14-30.48-25.48-70.45-36.52-109.1-22.87-80-46.51-162.72-95.66-176.12-28.37-7.74-62.55,7.9-104.52,47.79-48.92,46.49-89,64.82-122.38,56-54-14.19-79.49-97.27-101.93-170.57-17.91-58.48-33.37-109-59.43-113C816-14,797.85.21,776,31.88c-20.9,30.25-47.8,46.6-79.93,48.59-2.29.14-4.61.21-6.94.21-116.38,0-273-175.44-357.88-270.56-31-34.7-53.35-59.78-57.45-57.53-.65.35-1.12,1.8.26,6.7l-.72.2c-1.25-4.44-1.22-6.84.1-7.56,4.42-2.42,22.06,17,58.37,57.69C418.28-93.45,579.32,87,696,79.72c31.9-2,58.6-18.22,79.36-48.26,22.08-31.94,40.42-46.28,56.1-43.85,26.52,4.11,42,54.83,60,113.55,22.38,73.11,47.75,156,101.4,170.07,33.15,8.71,73-9.56,121.67-55.86,42.18-40.09,76.6-55.79,105.24-48C1269.34,180.9,1293,263.84,1316,344s44.64,156.19,89.93,166c30.23,6.5,68-17.64,115.63-73.83l.57.48C1479.39,487.06,1444.46,511.77,1415.74,511.77Z" transform="translate(-36.33 467.02)"/>
    <path class="cls-1" d="M1432,511.44a49.33,49.33,0,0,1-10.21-1c-21.09-4.41-39.43-23.16-56.07-57.33-14.84-30.47-27.13-70.43-39-109.07-24.58-79.92-50-162.56-100.4-176.09-28.67-7.69-62.77,7.26-104.22,45.72-40.29,37.4-74.75,55.81-104.68,55.81a69.15,69.15,0,0,1-17.3-2.17c-55.45-14.33-82.71-97.4-106.77-170.7-19.19-58.49-35.77-109-62.46-112.92C815.38-18.62,797.45-4.82,776,25.86c-20.12,28.85-46.24,44.53-77.62,46.61q-3.69.24-7.46.24c-117.84,0-280.3-177.48-368.43-273.76-32-34.92-55.07-60.16-59.08-57.86-.5.29-1.13,1.53.42,6.6l-.72.21c-1.33-4.36-1.35-6.74-.07-7.47,4.34-2.47,22.55,17.09,60,58C413-103.32,580.4,79.52,698.37,71.72c31.14-2.06,57.07-17.63,77.06-46.29C797-5.5,815.18-19.42,831-17.09c27.15,4,43.79,54.7,63.06,113.42,24,73.12,51.2,156,106.25,170.21,33.52,8.67,73.19-8.83,121.28-53.46,41.66-38.65,76-53.66,104.93-45.89,50.8,13.63,76.28,96.47,100.91,176.58,24.7,80.31,48,156.17,94.52,165.9,30.53,6.39,68.13-16.93,114.92-71.28l.57.49C1495.47,487.57,1460.84,511.44,1432,511.44Z" transform="translate(-36.33 467.02)"/>
    <path class="cls-1" d="M1448.42,511.39a52.16,52.16,0,0,1-10.42-1c-21.64-4.4-40.68-23.14-58.21-57.31-15.64-30.48-28.82-70.45-41.55-109.11-26.33-79.87-53.55-162.46-105.23-176.12-29-7.66-63,6.63-103.9,43.69-39.57,35.83-73.7,53.47-103.67,53.47a72.68,72.68,0,0,1-17.91-2.21c-56.88-14.47-86-97.59-111.71-170.92C875.32,33.33,857.61-17.21,830.26-21,814.69-23.19,797-9.8,776,19.9c-19.37,27.51-44.72,42.54-75.34,44.68-27.92,2-60.91-6.77-98.06-25.92C570.94,22.32,535.34-2.07,496.81-33.85c-70.27-57.94-138.23-130.4-183.2-178.35-33-35.17-56.82-60.59-60.77-58.26-.49.29-1.07,1.52.55,6.51l-.71.24c-1.4-4.31-1.47-6.65-.23-7.39,4.27-2.53,23.05,17.17,61.71,58.39,45,47.93,112.9,120.37,183.12,178.28C535.78-2.68,571.34,21.68,603,38c37,19.09,69.9,27.79,97.67,25.84,30.38-2.12,55.54-17,74.78-44.36,21.09-29.95,39.06-43.44,55-41.23,27.79,3.87,45.57,54.61,66.16,113.36,25.64,73.16,54.69,156.07,111.19,170.44,33.87,8.61,73.41-8.1,120.89-51.08,41.13-37.25,75.34-51.59,104.59-43.87,52.08,13.76,79.36,96.55,105.75,176.62,26.47,80.33,51.48,156.22,99.2,165.91,30.82,6.27,68.19-16.23,114.2-68.77l.57.49C1511.76,488.35,1477.43,511.39,1448.42,511.39Z" transform="translate(-36.33 467.02)"/>
    <path class="cls-1" d="M1465.1,511.62a54.35,54.35,0,0,1-10.63-1c-22.2-4.38-42-23.13-60.4-57.31-16.45-30.5-30.53-70.5-44.14-109.2-28.1-79.86-57.15-162.45-110.15-176.25-29.27-7.63-63.16,6-103.58,41.69-47.08,41.55-86.71,57.55-121.17,48.92-58.35-14.62-89.38-97.82-116.75-171.23C876.44,28.63,857.57-22,829.57-25.64,813.92-27.7,796.36-14.74,775.92,14c-18.65,26.21-43.24,40.61-73.09,42.81-28.2,2.07-61.8-6.71-99.89-26.09C570.47,14.2,533.83-10.51,494-42.72,421.5-101.44,351-174.84,304.37-223.41c-34-35.42-58.6-61-62.46-58.65-.47.29-1,1.51.7,6.42l-.71.24c-1.48-4.24-1.6-6.56-.38-7.3,4.19-2.57,23.53,17.27,63.4,58.77C351.54-175.37,422-102,494.51-43.3c39.75,32.18,76.35,56.86,108.77,73.36,38,19.31,71.44,28.07,99.49,26,29.62-2.18,54-16.48,72.54-42.5,20.62-29,38.4-42,54.36-39.95C858.12-22.65,877.06,28.14,899,87c27.3,73.24,58.25,156.24,116.22,170.76,34.21,8.57,73.61-7.38,120.49-48.75,40.63-35.86,74.74-49.54,104.27-41.85,53.38,13.89,82.5,96.67,110.67,176.72,28.28,80.41,55,156.36,104,166,31.12,6.13,68.24-15.55,113.49-66.31l.56.5C1528.25,489.39,1494.23,511.62,1465.1,511.62Z" transform="translate(-36.33 467.02)"/>
    <path class="cls-1" d="M1482,512.12a57.49,57.49,0,0,1-10.85-1c-22.77-4.36-43.25-23.12-62.63-57.34-17.29-30.53-32.28-70.6-46.78-109.34-29.91-79.9-60.83-162.52-115.16-176.47-29.56-7.59-63.34,5.4-103.26,39.72-46.49,40-86,55.2-120.75,46.62-59.86-14.78-92.82-98.1-121.9-171.61C877.48,24,857.44-26.67,828.77-30.23,813-32.17,795.68-19.62,775.7,8.17c-17.94,25-41.78,38.75-70.86,41-28.46,2.18-62.67-6.66-101.7-26.27-33.26-16.72-70.95-41.76-112-74.42C416.26-111.06,343.2-185.43,294.85-234.65c-35.06-35.69-60.4-61.49-64.18-59.08-.46.29-.95,1.5.84,6.34l-.7.26c-1.55-4.18-1.73-6.48-.55-7.23,4.12-2.61,24.05,17.38,65.13,59.19,48.33,49.2,121.38,123.55,196.2,183,41,32.62,78.67,57.63,111.89,74.33,38.9,19.55,73,28.37,101.3,26.19,28.85-2.22,52.51-15.9,70.32-40.67C795.24-20.3,812.84-33,828.86-31,858-27.36,878.09,23.5,901.39,82.4c29,73.35,61.9,156.48,121.37,171.16,34.52,8.53,73.8-6.67,120.09-46.46,40.13-34.49,74.12-47.53,103.94-39.88,54.71,14.05,85.7,96.86,115.67,176.93,30.14,80.52,58.6,156.58,108.85,166.22,31.39,6,68.27-14.88,112.76-63.89l.55.51C1545,490.69,1511.24,512.12,1482,512.12Z" transform="translate(-36.33 467.02)"/>
    <path class="cls-1" d="M1499.18,512.91a59.73,59.73,0,0,1-11.06-1c-23.36-4.35-44.59-23.13-64.91-57.4-18.14-30.58-34.08-70.72-49.49-109.54-31.74-80-64.56-162.66-120.26-176.77-29.82-7.56-63.49,4.8-102.93,37.78-45.91,38.4-85.28,52.91-120.34,44.36-61.39-15-96.32-98.44-127.14-172.1-24.6-58.8-45.85-109.58-75.2-113-15.79-1.84-33,10.32-52.46,37.17-17.26,23.75-40.37,37-68.67,39.2C678,43.88,643.19,35,603.23,15.1,569.16-1.83,530.41-27.21,488.05-60.32,410.83-120.68,335.13-196,285-245.93c-36.13-36-62.22-62-65.94-59.53-.43.29-.89,1.48,1,6.25l-.7.28c-1.62-4.13-1.85-6.41-.7-7.16,4-2.64,24.56,17.49,66.88,59.63C335.65-196.6,411.33-121.25,488.51-60.91c42.32,33.08,81,58.43,115,75.34,39.84,19.81,74.53,28.69,103.1,26.42,28.08-2.24,51-15.33,68.12-38.9,19.69-27.09,37.07-39.35,53.16-37.47C857.73-32,879.05,18.92,903.75,77.93c30.75,73.5,65.6,156.79,126.62,171.66,34.82,8.49,74-6,119.68-44.2,39.63-33.15,73.52-45.56,103.6-37.94,56.06,14.21,89,97.08,120.77,177.22,32,80.68,62.28,156.88,113.83,166.49,31.65,5.9,68.28-14.22,112-61.51l.55.51C1561.88,492.26,1528.48,512.91,1499.18,512.91Z" transform="translate(-36.33 467.02)"/>
    <path class="cls-1" d="M1516.58,514a63.07,63.07,0,0,1-11.27-1c-24-4.34-45.94-23.15-67.24-57.49-19-30.65-35.9-70.88-52.24-109.8-33.61-80.06-68.38-162.86-125.46-177.15-30.08-7.53-63.64,4.2-102.61,35.88-45.34,36.86-84.56,50.64-119.9,42.13-63-15.16-99.9-98.84-132.49-172.67-26-59-48.51-109.87-78.54-113.16C811-41,794-29.27,775-3.34c-16.61,22.6-39,35.21-66.52,37.48-28.94,2.39-64.37-6.61-105.29-26.74C568.3-9.75,528.46-35.49,484.78-69.08c-79.62-61.23-158-137.63-209.87-188.19-37.2-36.25-64.09-62.44-67.7-60-.42.28-.83,1.47,1.13,6.18l-.69.28c-1.7-4.08-2-6.33-.86-7.08,4-2.69,25.07,17.61,68.64,60.08,51.86,50.54,130.22,126.92,209.8,188.12C528.88-36.11,568.67-10.4,603.5,6.73c40.8,20.07,76.09,29,104.9,26.67,27.3-2.25,49.5-14.76,66-37.19,19.23-26.16,36.41-38,52.54-36.25,30.47,3.33,53,54.43,79.14,113.59,32.53,73.68,69.39,157.18,132,172.25,35.1,8.45,74.11-5.28,119.26-42,39.16-31.84,72.94-43.62,103.26-36,57.45,14.38,92.29,97.36,126,177.59,34,80.87,66,157.25,118.91,166.84,31.86,5.78,68.26-13.57,111.26-59.16l.54.51C1579,494.09,1546,514,1516.58,514Z" transform="translate(-36.33 467.02)"/>
    <path class="cls-1" d="M1534.25,515.31a65.54,65.54,0,0,1-11.49-1c-24.56-4.33-47.33-23.18-69.62-57.61-19.89-30.73-37.76-71.08-55.05-110.1-35.52-80.21-72.26-163.15-130.76-177.64-30.32-7.51-63.78,3.62-102.28,34-44.78,35.36-83.86,48.42-119.47,39.94C981,227.54,942,143.62,907.63,69.58c-27.48-59.14-51.21-110.21-82-113.36C809.81-45.41,793.05-34,774.45-9c-16,21.49-37.63,33.54-64.38,35.81C680.9,29.28,644.88,20.19,603-.22c-35.68-17.39-76.6-43.49-121.63-77.57-82.05-62.12-163.18-139.58-216.86-190.83-38.31-36.58-66-63-69.52-60.52-.41.28-.78,1.45,1.26,6.11l-.69.3c-1.79-4.09-2.1-6.26-1-7,3.87-2.71,25.6,17.76,70.46,60.6,53.67,51.24,134.78,128.68,216.8,190.77,45,34.06,85.87,60.13,121.51,77.5C645.08,19.46,681,28.52,710,26.06c26.53-2.26,48-14.2,63.85-35.52,18.77-25.25,35.75-36.72,51.91-35.07,31.16,3.19,55,54.45,82.55,113.79,34.34,73.89,73.25,157.64,137.45,172.92,35.37,8.43,74.23-4.6,118.83-39.8,38.7-30.55,72.36-41.72,102.92-34.15,58.86,14.58,95.67,97.69,131.27,178.06,35.92,81.1,69.85,157.71,124.11,167.29,32.07,5.66,68.21-13,110.48-56.87l.54.52C1596.41,496.2,1563.66,515.31,1534.25,515.31Z" transform="translate(-36.33 467.02)"/>
    <path class="cls-1" d="M1552.19,516.94a68.34,68.34,0,0,1-11.72-1c-25.18-4.33-48.74-23.22-72-57.76-20.8-30.82-39.67-71.31-57.92-110.47-37.47-80.38-76.22-163.5-136.16-178.2-30.55-7.5-63.89,3-101.94,32.16-44.25,33.89-83.19,46.25-119,37.8C987.2,223.86,946.1,139.67,909.85,65.38c-29-59.35-54-110.61-85.42-113.62-15.89-1.52-32.44,9.47-50.59,33.61C758.47,5.8,737.51,17.3,711.53,19.56c-29.37,2.56-66-6.64-108.84-27.34C566.19-25.42,524.16-51.9,477.76-86.5c-84.54-63-168.46-141.59-224-193.56-39.41-36.89-67.89-63.54-71.34-61-.31.22-.8,1.27,1.4,6l-.68.31c-1.87-4-2.22-6.19-1.16-7,3.8-2.73,26.15,17.91,72.29,61.1,55.52,52,139.43,130.5,223.93,193.51,46.36,34.57,88.35,61,124.81,78.64,42.72,20.64,79.21,29.82,108.44,27.28,25.76-2.25,46.55-13.65,61.78-33.9C791.56-39.44,808.34-50.53,824.5-49c31.86,3.05,57,54.49,86,114,36.18,74.14,77.18,158.16,143,173.69,35.62,8.4,74.35-3.92,118.41-37.66,38.24-29.29,71.8-39.85,102.58-32.3,60.29,14.79,99.11,98.07,136.66,178.61,18.24,39.13,37.1,79.6,57.86,110.37,23.18,34.36,46.58,53.15,71.55,57.45,32.25,5.54,68.14-12.32,109.71-54.61l.53.53C1614.05,498.57,1581.63,516.94,1552.19,516.94Z" transform="translate(-36.33 467.02)"/>
    <path class="cls-1" d="M1570.4,518.85a72.18,72.18,0,0,1-12-1c-25.81-4.33-50.19-23.28-74.52-57.94-21.72-30.94-41.61-71.59-60.85-110.9-39.45-80.59-80.24-163.92-141.65-178.86-30.77-7.48-64,2.45-101.61,30.36-43.72,32.44-82.51,44.11-118.6,35.67C993.39,220.33,950.17,135.82,912,61.26c-30.49-59.59-56.81-111.06-89-113.93-15.89-1.41-32.23,9.21-50,32.47-14.78,19.41-35,30.38-60.27,32.62-29.57,2.63-66.78-6.69-110.6-27.69C564.92-33.17,521.77-60,474-95.17c-87.05-64-173.83-143.66-231.25-196.38-39-35.82-69.82-64.11-73.2-61.6-.3.22-.75,1.26,1.54,6l-.68.33c-1.94-4-2.34-6.13-1.31-6.9,3.71-2.76,26.69,18.07,74.16,61.65C300.65-239.4,387.4-159.74,474.43-95.78c47.74,35.1,90.86,62,128.15,79.83,43.69,21,80.77,30.24,110.2,27.63,25-2.22,45.1-13.1,59.74-32.33C790.41-44.14,807-54.86,823.14-53.42c32.56,2.91,59,54.55,89.56,114.34,38.06,74.42,81.2,158.76,148.69,174.54,35.86,8.39,74.45-3.24,118-35.54,37.79-28,71.23-38,102.22-30.49,61.76,15,102.63,98.52,142.15,179.26,19.23,39.29,39.11,79.9,60.8,110.8,24.21,34.48,48.42,53.33,74,57.63,32.43,5.44,68.06-11.7,108.92-52.39l.53.53C1631.92,501.21,1599.84,518.85,1570.4,518.85Z" transform="translate(-36.33 467.02)"/>
    <path class="cls-1" d="M1588.91,521a75.21,75.21,0,0,1-12.2-1c-26.46-4.33-51.66-23.35-77-58.15-22.67-31.07-43.61-71.89-63.86-111.37-41.46-80.83-84.34-164.42-147.24-179.61-31-7.48-64.09,1.87-101.27,28.58-43.2,31-81.86,42-118.17,33.59-69.51-16.15-114.91-101-155-175.87-32-59.86-59.7-111.57-92.56-114.29-15.87-1.31-32,8.93-49.3,31.34C758.09-7.3,738.49,3.16,714,5.38c-29.74,2.69-67.55-6.77-112.35-28.09C563.52-40.88,519.22-68.17,470-103.84c-89.62-65-179.3-145.79-238.65-199.27-40.11-36.15-71.8-64.71-75.08-62.18-.29.22-.7,1.24,1.67,5.91l-.67.34c-2-4-2.46-6.07-1.46-6.84,3.63-2.77,27.24,18.24,76,62.21,59.33,53.47,149,134.28,238.58,199.22C519.63-68.81,563.88-41.53,602-23.39c44.68,21.27,82.35,30.7,112,28,24.24-2.19,43.67-12.56,57.75-30.81,17.45-22.63,33.8-33,49.95-31.64,33.26,2.76,61,54.63,93.16,114.69,40,74.72,85.3,159.42,154.48,175.49,36.1,8.38,74.55-2.57,117.57-33.47,37.36-26.84,70.68-36.23,101.88-28.7,63.23,15.27,106.19,99,147.73,180,20.24,39.45,41.17,80.25,63.79,111.27,25.27,34.63,50.31,53.55,76.56,57.85,32.57,5.34,67.93-11.08,108.11-50.2l.52.54C1650.06,504.12,1618.33,521,1588.91,521Z" transform="translate(-36.33 467.02)"/>
    <path class="cls-1" d="M1607.71,523.53a78.52,78.52,0,0,1-12.46-1c-27.11-4.34-53.15-23.45-79.61-58.4-23.63-31.21-45.63-72.23-66.92-111.89-43.52-81.12-88.52-165-152.94-180.45-31.16-7.48-64.18,1.29-100.93,26.82-42.71,29.66-81.22,40-117.74,31.54C1005.89,213.7,958.26,128.47,916.24,53.27,882.62-6.9,853.58-58.86,820-61.45c-15.87-1.23-31.77,8.67-48.63,30.25C757.71-13.72,738.76-3.75,715.05-1.57c-3.32.3-6.76.45-10.3.45-28.25,0-63.09-9.71-103.79-29-39-18.45-84.45-46.17-135.09-82.4-92.23-66-184.87-148-246.18-202.24-41.23-36.49-73.8-65.32-77-62.79-.27.22-.65,1.23,1.81,5.86l-.66.35c-2.09-3.93-2.59-6-1.61-6.79,3.54-2.8,27.8,18.42,78,62.81C281.48-261,374.11-179.06,466.31-113.1c50.6,36.2,96,63.9,135,82.33C647-9.16,685.21.41,715-2.32c23.49-2.16,42.26-12,55.8-29.35,17-21.78,33.14-31.78,49.27-30.53,34,2.62,63.11,54.75,96.84,115.1,41.94,75.07,89.49,160.15,160.38,176.53,36.3,8.39,74.62-1.89,117.14-31.43,36.94-25.66,70.16-34.47,101.54-26.93,64.74,15.54,109.83,99.56,153.42,180.82,21.27,39.64,43.27,80.63,66.86,111.79,26.33,34.8,52.22,53.81,79.12,58.12,32.71,5.24,67.8-10.48,107.3-48.06l.51.54C1668.46,507.31,1637.08,523.53,1607.71,523.53Z" transform="translate(-36.33 467.02)"/>
    <path class="cls-1" d="M1626.82,526.31a82.4,82.4,0,0,1-12.75-1c-27.77-4.36-54.66-23.56-82.22-58.69-24.61-31.37-47.71-72.6-70-112.47-45.61-81.42-92.78-165.61-158.73-181.38-31.35-7.49-64.26.72-100.6,25.1-42.23,28.32-80.6,38-117.31,29.52-73-16.79-122.85-102.44-166.87-178-35.25-60.5-65.68-112.75-100-115.2-15.82-1.13-31.51,8.41-47.95,29.17C757.21-20,738.9-10.56,715.93-8.43c-30.06,2.79-69-7-115.83-29-39.85-18.74-86.47-46.91-138.56-83.71-94.88-67-190.55-150.25-253.86-205.31-42.36-36.85-75.83-65.95-78.94-63.42-.27.22-.61,1.21,1.94,5.8l-.66.37c-2.17-3.9-2.71-6-1.76-6.75,3.47-2.8,28.39,18.61,79.91,63.43,63.3,55.06,159,138.26,253.8,205.26C514-85,560.61-56.81,600.42-38.09c46.68,22,85.52,31.69,115.45,28.91,22.75-2.11,40.89-11.5,53.9-27.92,16.61-21,32.5-30.6,48.59-29.46C853.06-64.08,883.59-11.67,918.94,49c43.94,75.43,93.75,160.93,166.39,177.65,36.5,8.41,74.68-1.22,116.72-29.42,36.53-24.5,69.63-32.74,101.19-25.2,66.27,15.84,113.52,100.18,159.22,181.74,22.32,39.85,45.41,81.05,70,112.38,27.43,35,54.17,54.08,81.75,58.41,32.81,5.15,67.63-9.88,106.47-46l.51.55C1687.13,510.78,1656.13,526.31,1626.82,526.31Z" transform="translate(-36.33 467.02)"/>
    <path class="cls-1" d="M1646.25,529.37a86.29,86.29,0,0,1-13-1c-28.45-4.39-56.22-23.69-84.9-59-25.6-31.54-49.82-73-73.24-113.1-47.75-81.76-97.12-166.3-164.64-182.39-31.51-7.51-64.31.14-100.27,23.39-41.75,27-80,36-116.88,27.55-74.72-17.16-126.92-103.26-173-179.22-36.9-60.86-68.77-113.42-103.8-115.73C800.72-71.2,785.27-62,769.23-42c-12.64,15.73-30.33,24.76-52.57,26.83-30.21,2.82-69.76-7.09-117.57-29.48C558.38-63.74,510.57-92.37,457-129.77c-97.57-68.1-196.32-152.56-261.66-208.45-43.51-37.21-77.88-66.6-80.91-64.07-.2.17-.64,1.07,2.07,5.75l-.65.38c-2.24-3.87-2.83-5.94-1.9-6.71,3.37-2.81,29,18.82,81.88,64.08,65.33,55.88,164.06,140.32,261.6,208.41,53.54,37.37,101.31,66,142,85C647.09-23,686.52-13.15,716.59-15.95c22-2.06,39.54-11,52-26.56C784.85-62.67,800.52-72,816.54-70.9,852-68.56,883.92-15.85,920.93,45.19,966.91,121,1019,207,1093.44,224.07c36.68,8.43,74.73-.55,116.31-27.44,36.13-23.38,69.12-31.07,100.85-23.5,67.82,16.17,117.28,100.85,165.11,182.74,23.4,40.08,47.6,81.51,73.18,113,28.55,35.17,56.17,54.39,84.42,58.74,32.9,5.08,67.45-9.28,105.63-43.89l.5.56C1706.09,514.52,1675.46,529.37,1646.25,529.37Z" transform="translate(-36.33 467.02)"/>
    <path class="cls-1" d="M1666,532.73a89.45,89.45,0,0,1-13.38-1c-29.13-4.42-57.78-23.84-87.6-59.38-26.63-31.73-52-73.44-76.51-113.78C1438.59,276.43,1387,191.5,1317.88,175.05c-31.69-7.54-64.38-.43-100,21.73-63.27,39.42-120.65,38.32-175.41-3.35C995,157.28,956.35,96,922.25,41.85,883.65-19.4,850.32-72.29,814.57-74.47c-15.71-1-30.94,7.9-46.58,27.07-12.15,14.91-29.23,23.49-50.76,25.51-30.33,2.85-70.46-7.25-119.3-30-41.57-19.38-90.58-48.48-145.67-86.49-100.3-69.21-202.19-155-269.61-211.68C138-387.67,102.7-417.36,99.73-414.83c-.19.16-.59,1.06,2.21,5.7l-.64.39c-2.32-3.84-3-5.9-2-6.66,3.29-2.83,28.1,17.81,83.88,64.75C250.54-293.93,352.41-208.21,452.69-139,572.21-56.54,661.2-17.4,717.16-22.63c21.32-2,38.23-10.5,50.25-25.24,15.8-19.38,31.24-28.33,47.2-27.35C850.75-73,884.18-20,922.88,41.45,957,95.5,995.56,156.77,1043,192.83c54.49,41.47,111.59,42.55,174.56,3.31,35.76-22.27,68.64-29.41,100.53-21.82,69.4,16.52,121.1,101.59,171.1,183.85,24.51,40.32,49.85,82,76.44,113.69,29.7,35.39,58.2,54.73,87.14,59.11,33,5,67.24-8.69,104.78-41.86l.5.56C1725.33,518.54,1695.08,532.72,1666,532.73Z" transform="translate(-36.33 467.02)"/>
    <path class="cls-1" d="M1686.08,536.38a92.9,92.9,0,0,1-13.73-1c-29.82-4.46-59.38-24-90.36-59.78-27.68-31.93-54.2-73.92-79.84-114.51-74.4-117.78-151.33-239.56-276.39-164.63-30,18-58.86,27-86.86,27-31.06,0-61.09-11.08-90.58-33.24-48.65-36.57-88.76-97.9-124.15-152C883.84-23.47,849-76.72,812.53-78.77c-15.62-.88-30.63,7.64-45.87,26.05-13.6,16.42-33.56,24.65-59.61,24.65q-21.9,0-49.46-7.75c-43.32-12.19-98.13-39.12-162.89-80C377.17-190.12,252.27-293.57,169.63-362c-45.86-38-82.09-68-85-65.48-.19.17-.56,1.05,2.34,5.67l-.64.4c-2.43-3.87-3.08-5.85-2.2-6.63,3.23-2.83,28.68,18,85.94,65.46,82.63,68.44,207.5,171.87,325,246.11,64.7,40.88,119.44,67.78,162.69,79.95,50.85,14.31,87.29,8.71,108.29-16.66,15.41-18.6,30.61-27.2,46.49-26.32C849.43-77.45,884.36-24,924.79,37.77c35.36,54.06,75.44,115.33,124,151.82,55.81,41.94,113.57,44,176.61,6.2,125.69-75.31,202.81,46.79,277.4,164.88,25.63,40.57,52.14,82.53,79.77,114.42,30.87,35.62,60.27,55.09,89.91,59.53,33,4.94,67-8.11,103.93-39.88l.49.57C1744.87,522.85,1715,536.38,1686.08,536.38Z" transform="translate(-36.33 467.02)"/>
    <path class="cls-1" d="M1706.52,540.33a95.68,95.68,0,0,1-14.13-1c-30.52-4.51-61-24.2-93.17-60.21-28.73-32.16-56.44-74.43-83.24-115.31C1438.76,246,1358.92,124.18,1233.69,196.23c-63.4,36.48-122.13,33.49-179.54-9.15-49.81-37-91.4-98.35-128.1-152.48C884-27.5,847.59-81.14,810.38-83.06c-15.53-.82-30.3,7.39-45.16,25.05-21,25-58,30-110,14.9-44-12.79-99.89-40.36-166.07-81.93C369-200.49,241-304.94,156.26-374.06c-47.06-38.4-84.23-68.74-87-66.22-.12.11-.59.91,2.48,5.63l-.63.41c-2.51-3.85-3.21-5.82-2.35-6.6,3.15-2.83,29.26,18.26,88,66.19,84.71,69.11,212.73,173.55,332.79,249C555.65-84.14,611.46-56.6,655.41-43.83c51.67,15,88.42,10.08,109.23-14.66,15-17.86,30-26.13,45.78-25.32,37.58,1.94,74,55.72,116.25,118,36.67,54.09,78.22,115.39,127.93,152.3,57.15,42.45,115.61,45.42,178.72,9.11,125.84-72.4,205.88,49.7,283.29,167.78,26.78,40.86,54.47,83.1,83.17,115.22,32.06,35.87,62.38,55.49,92.72,60,33,4.88,66.76-7.52,103.07-37.92l.48.57C1764.72,527.44,1735.28,540.33,1706.52,540.33Z" transform="translate(-36.33 467.02)"/>
    <path class="cls-1" d="M1727.3,544.59a100.12,100.12,0,0,1-14.55-1.07c-31.23-4.57-62.63-24.42-96-60.69-29.82-32.4-58.74-75-86.72-116.14C1450,248.83,1367.15,127,1241.7,196.16c-63.5,35-122.94,31.08-181.71-12.07-51-37.43-94.08-98.84-132.1-153C884-31.5,846.06-85.54,808.12-87.35c-15.43-.74-30,7.14-44.44,24.08C751-48.47,732.27-41,707.68-41q-23.86,0-55-9.31C607.94-63.76,551-92,483.35-134.21c-122.73-76.68-254-182.18-340.81-252-48.29-38.82-86.43-69.49-89.15-67-.12.11-.56.9,2.61,5.59l-.62.42c-3.25-4.81-3.09-6-2.5-6.56C56-456.57,82.73-435.26,143-386.79c86.83,69.8,218,175.29,340.74,251.94,67.56,42.21,124.47,70.39,169.13,83.77,52.51,15.72,89.59,11.46,110.23-12.68,14.64-17.12,29.37-25.08,45-24.34,38.3,1.83,76.32,56,120.34,118.74,38,54.13,81,115.49,131.94,152.85,58.51,43,117.68,46.89,180.9,12,126-69.53,209,52.63,289.3,170.76,27.95,41.15,56.86,83.7,86.64,116.06,33.27,36.14,64.53,55.91,95.57,60.46,33.07,4.85,66.5-6.93,102.22-36l.48.58C1784.88,532.32,1755.86,544.59,1727.3,544.59Z" transform="translate(-36.33 467.02)"/>
    <path class="cls-1" d="M1748.45,549.15a103.77,103.77,0,0,1-15-1.1c-31.94-4.64-64.3-24.67-98.92-61.22-30.92-32.66-61.08-75.55-90.25-117-83-118-168.74-239.95-294.45-173.58-27.72,14.64-54.79,22-81.48,22-34.58,0-68.53-12.3-102.48-36.95-52.19-37.9-96.8-99.38-136.16-153.63C883.93-35.45,844.42-89.91,805.75-91.62c-15.31-.67-29.61,6.89-43.72,23.12C741.36-44.72,703.66-41,650-57.59c-45.46-14-103.54-42.87-172.64-85.81-125.4-77.92-259.9-184.52-348.89-255.06-49.53-39.25-88.65-70.26-91.29-67.77-.12.11-.53.89,2.74,5.56l-.62.43c-3.35-4.79-3.21-6-2.64-6.53,3-2.83,30.45,18.73,92.27,67.73,89,70.52,223.46,177.11,348.83,255,69,42.9,127.06,71.74,172.46,85.73C703.57-41.86,741-45.46,761.46-69,775.73-85.4,790.24-93,805.78-92.36c39,1.71,78.64,56.31,124.51,119.53,39.33,54.2,83.9,115.64,136,153.47,59.9,43.49,119.82,48.37,183.17,14.92,126.29-66.68,212.27,55.57,295.41,173.81,29.15,41.46,59.3,84.33,90.19,116.94,34.5,36.42,66.71,56.38,98.47,61,33.07,4.82,66.22-6.35,101.36-34.13l.47.59C1805.36,537.48,1776.78,549.14,1748.45,549.15Z" transform="translate(-36.33 467.02)"/>
  </g>
</svg>
