<svg width="685" height="718" fill="none" xmlns="http://www.w3.org/2000/svg"><g opacity=".1" stroke-width="3"><path opacity=".01" d="M97.252-234.025a18.499 18.499 0 0 1 21.536-3.027L558.42-3.296a18.5 18.5 0 0 1 9.533 19.547L481.491 506.6a18.5 18.5 0 0 1-15.644 15.108l-493.068 69.296a18.501 18.501 0 0 1-19.202-10.21l-218.271-447.522a18.5 18.5 0 0 1 3.777-21.418L97.252-234.025Z" stroke="url(#a)"/><path opacity=".02" d="M103.28-239.309a18.498 18.498 0 0 1 21.585-2.65L559.509-1.032a18.499 18.499 0 0 1 9.191 19.71L473.878 506.5a18.502 18.502 0 0 1-15.906 14.833l-493.248 60.563a18.5 18.5 0 0 1-19.02-10.544L-264.319 120.96a18.5 18.5 0 0 1 4.15-21.349l363.448-338.92Z" stroke="url(#b)"/><path opacity=".03" d="M109.298-244.457a18.499 18.499 0 0 1 21.628-2.273L560.467 1.265a18.498 18.498 0 0 1 8.845 19.868L466.19 506.285a18.5 18.5 0 0 1-16.162 14.552l-493.273 51.845a18.5 18.5 0 0 1-18.834-10.874l-201.738-453.11a18.501 18.501 0 0 1 4.522-21.273l368.593-331.882Z" stroke="url(#c)"/><path opacity=".04" d="M115.303-249.47a18.501 18.501 0 0 1 21.666-1.895L561.291 3.593a18.5 18.5 0 0 1 8.498 20.02L458.431 505.954a18.5 18.5 0 0 1-16.413 14.268l-493.145 43.144a18.499 18.499 0 0 1-18.642-11.201L-263.192 96.489a18.5 18.5 0 0 1 4.893-21.19L115.303-249.47Z" stroke="url(#d)"/><path opacity=".051" d="M121.296-254.348a18.5 18.5 0 0 1 21.695-1.517L561.984 5.95a18.501 18.501 0 0 1 8.147 20.165L450.605 505.506a18.5 18.5 0 0 1-16.66 13.979L-58.918 553.95a18.5 18.5 0 0 1-18.444-11.525l-185.08-458.091a18.498 18.498 0 0 1 5.261-21.102l378.477-317.58Z" stroke="url(#e)"/><path opacity=".061" d="M127.274-259.093a18.501 18.501 0 0 1 21.718-1.138L562.545 8.334a18.5 18.5 0 0 1 7.794 20.303L442.714 504.94a18.5 18.5 0 0 1-16.901 13.687l-492.43 25.807a18.501 18.501 0 0 1-18.24-11.845L-261.568 72.236a18.5 18.5 0 0 1 5.628-21.007l383.215-310.322Z" stroke="url(#f)"/><path opacity=".071" d="M133.234-263.703a18.5 18.5 0 0 1 21.735-.759L562.975 10.741a18.5 18.5 0 0 1 7.438 20.437L434.76 504.257a18.5 18.5 0 0 1-17.138 13.389l-491.844 17.176a18.5 18.5 0 0 1-18.03-12.162L-260.575 60.197a18.5 18.5 0 0 1 5.995-20.906l387.814-302.994Z" stroke="url(#g)"/><path opacity=".081" d="M139.172-268.181a18.498 18.498 0 0 1 21.744-.38l402.353 281.73a18.501 18.501 0 0 1 7.081 20.564L426.742 503.452a18.5 18.5 0 0 1-17.369 13.089l-491.107 8.572a18.5 18.5 0 0 1-17.815-12.474L-259.462 48.217a18.498 18.498 0 0 1 6.358-20.798l392.276-295.6Z" stroke="url(#h)"/><path opacity=".091" d="M145.087-272.527a18.5 18.5 0 0 1 21.748 0L563.432 15.618a18.5 18.5 0 0 1 6.72 20.683L418.666 502.53a18.5 18.5 0 0 1-17.595 12.783h-490.22a18.501 18.501 0 0 1-17.595-12.783L-258.23 36.301a18.5 18.5 0 0 1 6.72-20.683l396.597-288.145Z" stroke="url(#i)"/><path opacity=".101" d="M150.979-276.741a18.5 18.5 0 0 1 21.744.379l390.74 294.444a18.498 18.498 0 0 1 6.358 20.797L410.534 501.483a18.499 18.499 0 0 1-17.815 12.474l-489.184-8.539a18.502 18.502 0 0 1-17.369-13.088L-256.879 24.45a18.5 18.5 0 0 1 7.08-20.564l400.778-280.627Z" stroke="url(#j)"/><path opacity=".111" d="M156.84-280.825a18.502 18.502 0 0 1 21.735.759L563.359 20.56a18.501 18.501 0 0 1 5.994 20.906L402.346 500.315a18.5 18.5 0 0 1-18.03 12.161l-488-17.041a18.5 18.5 0 0 1-17.138-13.39l-134.593-469.38a18.5 18.5 0 0 1 7.439-20.437L156.84-280.825Z" stroke="url(#k)"/><path opacity=".121" d="M162.675-284.778a18.5 18.5 0 0 1 21.718 1.138L563.124 23.05a18.5 18.5 0 0 1 5.628 21.007L394.107 499.024a18.5 18.5 0 0 1-18.239 11.845L-110.8 485.364a18.5 18.5 0 0 1-16.901-13.687L-253.833.947a18.499 18.499 0 0 1 7.794-20.303l408.714-265.422Z" stroke="url(#l)"/><path opacity=".131" d="M168.474-288.601a18.5 18.5 0 0 1 21.695 1.517L562.753 25.551a18.5 18.5 0 0 1 5.262 21.102L385.816 497.61a18.5 18.5 0 0 1-18.443 11.525l-485.19-33.928a18.5 18.5 0 0 1-16.66-13.98L-252.141-10.698a18.5 18.5 0 0 1 8.147-20.165L168.474-288.6Z" stroke="url(#m)"/><path opacity=".141" d="M174.241-292.297a18.5 18.5 0 0 1 21.665 1.895l366.345 318.46a18.499 18.499 0 0 1 4.892 21.19L377.478 496.072a18.5 18.5 0 0 1-18.642 11.201l-483.565-42.306a18.5 18.5 0 0 1-16.413-14.268L-250.336-22.272a18.5 18.5 0 0 1 8.497-20.02l416.08-250.005Z" stroke="url(#n)"/><path opacity=".152" d="M179.972-295.864a18.497 18.497 0 0 1 21.628 2.273l360.017 324.16a18.5 18.5 0 0 1 4.522 21.274L369.095 494.41a18.499 18.499 0 0 1-18.834 10.874l-481.797-50.639a18.5 18.5 0 0 1-16.162-14.552L-248.421-33.771a18.5 18.5 0 0 1 8.846-19.868l419.547-242.225Z" stroke="url(#o)"/><path opacity=".162" d="M185.663-299.305a18.5 18.5 0 0 1 21.586 2.65L560.85 33.084A18.5 18.5 0 0 1 565 54.432l-204.331 438.19a18.5 18.5 0 0 1-19.021 10.544l-479.886-58.923a18.5 18.5 0 0 1-15.905-14.832l-92.254-474.606a18.5 18.5 0 0 1 9.191-19.71l422.869-234.4Z" stroke="url(#p)"/><path opacity=".172" d="M191.312-302.621a18.5 18.5 0 0 1 21.537 3.027L559.95 35.598a18.5 18.5 0 0 1 3.776 21.417L352.2 490.708a18.5 18.5 0 0 1-19.202 10.21l-477.831-67.155a18.5 18.5 0 0 1-15.645-15.107l-83.79-475.197a18.502 18.502 0 0 1 9.534-19.547l426.046-226.533Z" stroke="url(#q)"/><path opacity=".182" d="M196.92-305.811a18.501 18.501 0 0 1 21.481 3.402L558.919 38.109a18.5 18.5 0 0 1 3.402 21.48L343.695 488.669a18.5 18.5 0 0 1-19.378 9.873l-475.637-75.333a18.5 18.5 0 0 1-15.378-15.378l-75.333-475.637a18.5 18.5 0 0 1 9.873-19.378L196.92-305.81Z" stroke="url(#r)"/><path opacity=".192" d="M202.482-308.878a18.499 18.499 0 0 1 21.417 3.777L557.755 40.616a18.502 18.502 0 0 1 3.027 21.537L335.152 486.5a18.5 18.5 0 0 1-19.547 9.533l-473.303-83.456a18.498 18.498 0 0 1-15.107-15.644l-66.887-475.927a18.498 18.498 0 0 1 10.21-19.202l431.964-210.683Z" stroke="url(#s)"/><path opacity=".202" d="M207.999-311.821a18.499 18.499 0 0 1 21.348 4.149L556.463 43.117a18.5 18.5 0 0 1 2.65 21.586L326.578 484.207a18.499 18.499 0 0 1-19.71 9.191l-470.831-91.52a18.5 18.5 0 0 1-14.832-15.905l-58.453-476.067a18.5 18.5 0 0 1 10.543-19.022l434.704-202.705Z" stroke="url(#t)"/><path opacity=".212" d="M213.463-314.644a18.502 18.502 0 0 1 21.273 4.522l320.3 355.73a18.5 18.5 0 0 1 2.273 21.628l-239.34 414.55a18.502 18.502 0 0 1-19.868 8.846l-468.221-99.524a18.5 18.5 0 0 1-14.552-16.162l-50.036-476.058a18.503 18.503 0 0 1 10.874-18.835l437.297-194.697Z" stroke="url(#u)"/><path opacity=".222" d="M218.879-317.346a18.5 18.5 0 0 1 21.19 4.893L553.481 48.086a18.5 18.5 0 0 1 1.896 21.665L309.333 479.237a18.5 18.5 0 0 1-20.019 8.497l-465.475-107.463a18.5 18.5 0 0 1-14.268-16.414l-41.636-475.901a18.5 18.5 0 0 1 11.201-18.642l439.743-186.66Z" stroke="url(#v)"/><path opacity=".232" d="M224.239-319.928a18.5 18.5 0 0 1 21.102 5.262L551.795 50.551a18.501 18.501 0 0 1 1.517 21.695L300.669 476.56a18.5 18.5 0 0 1-20.165 8.147l-462.595-115.338a18.5 18.5 0 0 1-13.98-16.66l-33.257-475.596a18.5 18.5 0 0 1 11.525-18.443l442.042-178.597Z" stroke="url(#w)"/><path opacity=".242" d="M229.544-322.391a18.498 18.498 0 0 1 21.007 5.629L549.979 53a18.502 18.502 0 0 1 1.138 21.719L291.98 473.755a18.502 18.502 0 0 1-20.304 7.794l-459.583-123.146a18.5 18.5 0 0 1-13.687-16.901l-24.901-475.144a18.498 18.498 0 0 1 11.845-18.239l444.194-170.51Z" stroke="url(#x)"/><path opacity=".253" d="M234.792-324.738a18.502 18.502 0 0 1 20.906 5.994L548.035 55.431a18.5 18.5 0 0 1 .759 21.735L283.27 470.82a18.498 18.498 0 0 1-20.437 7.438l-456.44-130.882a18.5 18.5 0 0 1-13.389-17.137l-16.571-474.545a18.5 18.5 0 0 1 12.161-18.03l446.198-162.403Z" stroke="url(#y)"/><path opacity=".263" d="M239.981-326.971a18.5 18.5 0 0 1 20.798 6.359L545.963 57.839a18.5 18.5 0 0 1 .379 21.745L274.54 467.758a18.499 18.499 0 0 1-20.563 7.08L-199.19 336.291a18.5 18.5 0 0 1-13.088-17.368l-8.27-473.801a18.5 18.5 0 0 1 12.474-17.815l448.055-154.278Z" stroke="url(#z)"/><path opacity=".273" d="M245.108-329.087a18.5 18.5 0 0 1 20.684 6.72l277.97 382.593a18.5 18.5 0 0 1 0 21.748l-277.97 382.593a18.502 18.502 0 0 1-20.684 6.721L-204.657 325.15a18.5 18.5 0 0 1-12.783-17.594v-472.911a18.5 18.5 0 0 1 12.783-17.595l449.765-146.137Z" stroke="url(#A)"/><path opacity=".283" d="M250.172-331.091a18.501 18.501 0 0 1 20.563 7.081L541.434 62.588a18.5 18.5 0 0 1-.379 21.745L257.028 461.248a18.5 18.5 0 0 1-20.797 6.359l-446.237-153.652a18.499 18.499 0 0 1-12.474-17.815l8.236-471.877a18.5 18.5 0 0 1 13.089-17.369l451.327-137.985Z" stroke="url(#B)"/><path opacity=".293" d="M255.169-332.983a18.5 18.5 0 0 1 20.437 7.439L538.979 64.922a18.5 18.5 0 0 1-.759 21.735L248.251 457.8a18.5 18.5 0 0 1-20.906 5.995l-442.583-161.087a18.502 18.502 0 0 1-12.162-18.03l16.438-470.701a18.499 18.499 0 0 1 13.389-17.138l452.742-129.822Z" stroke="url(#C)"/><path opacity=".303" d="M260.102-334.765a18.501 18.501 0 0 1 20.304 7.794L536.4 67.226a18.5 18.5 0 0 1-1.138 21.718L239.465 454.223a18.5 18.5 0 0 1-21.007 5.629L-220.349 291.41a18.5 18.5 0 0 1-11.845-18.24l24.599-469.382a18.5 18.5 0 0 1 13.687-16.901l454.01-121.652Z" stroke="url(#D)"/><path opacity=".313" d="M264.964-336.438a18.5 18.5 0 0 1 20.164 8.147L533.695 69.498a18.5 18.5 0 0 1-1.518 21.695L230.669 450.517a18.5 18.5 0 0 1-21.102 5.262l-434.909-175.715a18.5 18.5 0 0 1-11.525-18.443l32.72-467.922a18.5 18.5 0 0 1 13.98-16.66l455.131-113.477Z" stroke="url(#E)"/><path opacity=".323" d="M269.757-338.003a18.5 18.5 0 0 1 20.02 8.497l241.09 401.243a18.5 18.5 0 0 1-1.895 21.665L221.869 446.684a18.5 18.5 0 0 1-21.191 4.892l-430.891-182.902a18.502 18.502 0 0 1-11.201-18.642l40.798-466.322a18.5 18.5 0 0 1 14.268-16.413l456.105-105.3Z" stroke="url(#F)"/><path opacity=".333" d="M274.476-339.463a18.5 18.5 0 0 1 19.868 8.846L527.915 73.939a18.5 18.5 0 0 1-2.274 21.629L213.063 442.722a18.5 18.5 0 0 1-21.273 4.521L-234.965 257.24a18.503 18.503 0 0 1-10.874-18.835l48.83-464.582a18.501 18.501 0 0 1 14.552-16.162l456.933-97.124Z" stroke="url(#G)"/><path opacity=".343" d="M279.123-340.818a18.5 18.5 0 0 1 19.71 9.191l226.009 407.73a18.501 18.501 0 0 1-2.651 21.586L204.257 438.631a18.499 18.499 0 0 1-21.348 4.15l-422.502-197.016a18.5 18.5 0 0 1-10.544-19.021l56.813-462.705a18.502 18.502 0 0 1 14.832-15.906l457.615-88.951Z" stroke="url(#H)"/><path opacity=".354" d="M283.691-342.069a18.5 18.5 0 0 1 19.547 9.533L521.645 78.227a18.5 18.5 0 0 1-3.027 21.537L195.451 434.413a18.5 18.5 0 0 1-21.418 3.777l-418.135-203.938a18.5 18.5 0 0 1-10.21-19.203l64.746-460.69a18.498 18.498 0 0 1 15.107-15.644l458.15-80.784Z" stroke="url(#I)"/><path opacity=".364" d="M288.184-343.221a18.5 18.5 0 0 1 19.378 9.873L518.33 80.307a18.5 18.5 0 0 1-3.402 21.481L186.649 430.066a18.5 18.5 0 0 1-21.48 3.403l-413.656-210.768a18.5 18.5 0 0 1-9.873-19.378l72.626-458.541a18.499 18.499 0 0 1 15.378-15.378l458.54-72.625Z" stroke="url(#J)"/><path opacity=".374" d="M292.596-344.272a18.502 18.502 0 0 1 19.203 10.21L514.894 82.345a18.499 18.499 0 0 1-3.777 21.417L177.851 425.594a18.501 18.501 0 0 1-21.536 3.027L-252.75 211.117a18.5 18.5 0 0 1-9.534-19.547l80.45-456.256a18.502 18.502 0 0 1 15.644-15.108l458.786-64.478Z" stroke="url(#K)"/><path opacity=".384" d="M296.929-345.224a18.499 18.499 0 0 1 19.021 10.544L511.341 84.336a18.5 18.5 0 0 1-4.15 21.348L169.062 420.995a18.502 18.502 0 0 1-21.586 2.65l-404.365-224.144a18.5 18.5 0 0 1-9.192-19.71l88.218-453.839a18.5 18.5 0 0 1 15.905-14.832l458.887-56.344Z" stroke="url(#L)"/><path opacity=".394" d="M301.179-346.081a18.498 18.498 0 0 1 18.834 10.874L507.67 86.276a18.5 18.5 0 0 1-4.522 21.273L160.283 416.267a18.499 18.499 0 0 1-21.629 2.273l-399.56-230.685a18.5 18.5 0 0 1-8.845-19.868l95.924-451.29a18.5 18.5 0 0 1 16.162-14.552l458.844-48.226Z" stroke="url(#M)"/><path opacity=".404" d="M305.347-346.842a18.497 18.497 0 0 1 18.641 11.201l179.897 423.81a18.502 18.502 0 0 1-4.892 21.19L151.517 411.415a18.501 18.501 0 0 1-21.665 1.896l-394.649-237.129a18.5 18.5 0 0 1-8.497-20.019l103.57-448.61a18.5 18.5 0 0 1 16.413-14.268l458.658-40.127Z" stroke="url(#N)"/><path opacity=".414" d="M309.426-347.51a18.501 18.501 0 0 1 18.444 11.524L499.982 90.007a18.5 18.5 0 0 1-5.261 21.102L142.763 406.437a18.5 18.5 0 0 1-21.695 1.517l-389.634-243.471a18.499 18.499 0 0 1-8.147-20.164l111.15-445.801a18.5 18.5 0 0 1 16.66-13.979l458.329-32.049Z" stroke="url(#O)"/><path opacity=".424" d="M313.419-348.087a18.501 18.501 0 0 1 18.24 11.845L495.966 91.792a18.5 18.5 0 0 1-5.629 21.007L134.026 401.334a18.5 18.5 0 0 1-21.718 1.138l-384.519-249.709a18.5 18.5 0 0 1-7.794-20.304l118.665-442.864a18.498 18.498 0 0 1 16.901-13.686l457.858-23.996Z" stroke="url(#P)"/><path opacity=".434" d="M317.325-348.574a18.5 18.5 0 0 1 18.03 12.161L491.838 93.52a18.5 18.5 0 0 1-5.995 20.905L125.309 396.106a18.5 18.5 0 0 1-21.735.759L-275.731 141.02a18.5 18.5 0 0 1-7.439-20.436l126.111-439.802a18.5 18.5 0 0 1 17.138-13.389l457.246-15.967Z" stroke="url(#Q)"/><path opacity=".444" d="M321.141-348.973a18.5 18.5 0 0 1 17.815 12.474l148.642 431.69a18.498 18.498 0 0 1-6.358 20.797L116.612 390.755a18.5 18.5 0 0 1-21.745.379L-279.127 129.26a18.499 18.499 0 0 1-7.081-20.563l133.486-436.613a18.502 18.502 0 0 1 17.369-13.089l456.494-7.968Z" stroke="url(#R)"/><path opacity=".455" d="M324.864-349.286a18.5 18.5 0 0 1 17.595 12.784L483.247 96.801a18.5 18.5 0 0 1-6.72 20.683L107.937 385.28a18.5 18.5 0 0 1-21.748 0L-282.4 117.484a18.501 18.501 0 0 1-6.721-20.683l140.789-433.303a18.5 18.5 0 0 1 17.594-12.784h455.602Z" stroke="url(#S)"/><path opacity=".465" d="M328.496-349.514a18.5 18.5 0 0 1 17.369 13.088L478.789 98.349a18.501 18.501 0 0 1-7.081 20.563L99.288 379.683a18.5 18.5 0 0 1-21.744-.38l-363.091-273.609a18.5 18.5 0 0 1-6.359-20.798l148.016-429.87a18.5 18.5 0 0 1 17.815-12.475l454.571 7.935Z" stroke="url(#T)"/><path opacity=".475" d="M332.035-349.66a18.5 18.5 0 0 1 17.138 13.389l125.05 436.104a18.499 18.499 0 0 1-7.438 20.437L90.669 373.963a18.499 18.499 0 0 1-21.735-.759L-288.57 93.892a18.501 18.501 0 0 1-5.994-20.906l155.167-426.318a18.5 18.5 0 0 1 18.03-12.161l453.402 15.833Z" stroke="url(#U)"/><path opacity=".485" d="M335.478-349.726a18.502 18.502 0 0 1 16.902 13.687l117.171 437.291a18.5 18.5 0 0 1-7.793 20.303L82.078 368.122a18.5 18.5 0 0 1-21.719-1.138L-291.468 82.08a18.501 18.501 0 0 1-5.629-21.007l162.24-422.647a18.498 18.498 0 0 1 18.239-11.845l452.096 23.693Z" stroke="url(#V)"/><path opacity=".495" d="M338.826-349.712a18.5 18.5 0 0 1 16.66 13.979l109.289 438.336a18.5 18.5 0 0 1-8.147 20.165L73.518 362.161a18.498 18.498 0 0 1-21.695-1.517L-294.24 70.262a18.5 18.5 0 0 1-5.262-21.102l169.231-418.86a18.5 18.5 0 0 1 18.443-11.525l450.655 31.513Z" stroke="url(#W)"/><path opacity=".505" d="M342.074-349.621a18.5 18.5 0 0 1 16.414 14.268l101.406 439.239a18.5 18.5 0 0 1-8.498 20.019L64.991 356.081a18.5 18.5 0 0 1-21.665-1.895L-296.892 58.439a18.5 18.5 0 0 1-4.893-21.191l176.139-414.958a18.502 18.502 0 0 1 18.642-11.201l449.078 39.29Z" stroke="url(#X)"/><path opacity=".515" d="M345.224-349.456a18.499 18.499 0 0 1 16.162 14.552l93.526 440.002a18.502 18.502 0 0 1-8.846 19.868L56.5 349.882a18.5 18.5 0 0 1-21.629-2.274l-334.29-300.996a18.5 18.5 0 0 1-4.522-21.273l182.963-410.941a18.502 18.502 0 0 1 18.835-10.875l447.367 47.021Z" stroke="url(#Y)"/><path opacity=".525" d="M348.276-349.218a18.5 18.5 0 0 1 15.905 14.832l85.649 440.623a18.501 18.501 0 0 1-9.192 19.711L48.048 343.564a18.5 18.5 0 0 1-21.586-2.65L-301.821 34.785a18.5 18.5 0 0 1-4.15-21.348l189.701-406.815a18.5 18.5 0 0 1 19.021-10.544l445.525 54.704Z" stroke="url(#Z)"/><path opacity=".535" d="M351.225-348.908a18.498 18.498 0 0 1 15.644 15.107l77.779 441.104a18.5 18.5 0 0 1-9.534 19.547L39.634 337.13a18.499 18.499 0 0 1-21.536-3.027L-304.101 22.96a18.5 18.5 0 0 1-3.776-21.418l196.35-402.577a18.5 18.5 0 0 1 19.203-10.21l443.549 62.337Z" stroke="url(#aa)"/><path opacity=".545" d="M354.073-348.529a18.5 18.5 0 0 1 15.378 15.378l69.918 441.444a18.5 18.5 0 0 1-9.874 19.378L31.263 330.581a18.501 18.501 0 0 1-21.48-3.402l-316.04-316.04a18.501 18.501 0 0 1-3.402-21.48l202.91-398.233a18.5 18.5 0 0 1 19.378-9.873l441.444 69.918Z" stroke="url(#ab)"/><path opacity=".556" d="M356.818-348.083a18.502 18.502 0 0 1 15.108 15.645l62.069 441.645a18.502 18.502 0 0 1-10.21 19.202L22.936 323.916a18.5 18.5 0 0 1-21.418-3.777L-308.289-.675a18.502 18.502 0 0 1-3.027-21.537l209.378-393.782a18.5 18.5 0 0 1 19.547-9.533l439.209 77.444Z" stroke="url(#ac)"/><path opacity=".566" d="M359.459-347.571a18.5 18.5 0 0 1 14.832 15.905l54.234 441.707a18.498 18.498 0 0 1-10.543 19.021L14.653 317.137a18.5 18.5 0 0 1-21.348-4.15L-310.2-12.483a18.501 18.501 0 0 1-2.651-21.585l215.752-389.227a18.5 18.5 0 0 1 19.71-9.191l436.848 84.915Z" stroke="url(#ad)"/><path opacity=".576" d="M361.996-346.996a18.5 18.5 0 0 1 14.552 16.162l46.417 441.629a18.499 18.499 0 0 1-10.874 18.834L6.421 310.246a18.5 18.5 0 0 1-21.273-4.522L-311.988-24.278a18.5 18.5 0 0 1-2.273-21.63l222.03-384.568a18.5 18.5 0 0 1 19.869-8.846l434.358 92.326Z" stroke="url(#ae)"/><path opacity=".586" d="M364.425-346.36a18.498 18.498 0 0 1 14.268 16.413l38.619 441.415a18.497 18.497 0 0 1-11.201 18.641L-1.765 303.242a18.499 18.499 0 0 1-21.19-4.892L-313.657-36.062a18.5 18.5 0 0 1-1.895-21.665l228.213-379.811a18.5 18.5 0 0 1 20.02-8.498l431.743 99.676Z" stroke="url(#af)"/><path opacity=".596" d="M366.749-345.665a18.5 18.5 0 0 1 13.98 16.66l30.842 441.062a18.5 18.5 0 0 1-11.525 18.443L-9.898 296.128A18.498 18.498 0 0 1-31 290.867L-315.2-47.831a18.5 18.5 0 0 1-1.517-21.695L-82.42-444.481a18.5 18.5 0 0 1 20.164-8.147L366.75-345.665Z" stroke="url(#ag)"/><path opacity=".606" d="M368.966-344.911a18.499 18.499 0 0 1 13.686 16.901l23.09 440.572a18.501 18.501 0 0 1-11.845 18.24L-17.978 288.906a18.501 18.501 0 0 1-21.007-5.629l-277.641-342.86a18.5 18.5 0 0 1-1.139-21.718l240.283-370.002a18.5 18.5 0 0 1 20.303-7.793l426.145 114.185Z" stroke="url(#ah)"/><path opacity=".616" d="M371.074-344.104a18.499 18.499 0 0 1 13.389 17.138l15.364 439.947a18.5 18.5 0 0 1-12.162 18.03L-26.002 281.574a18.5 18.5 0 0 1-20.905-5.995L-317.931-71.316a18.5 18.5 0 0 1-.759-21.734l246.165-364.956a18.5 18.5 0 0 1 20.437-7.438l423.162 121.34Z" stroke="url(#ai)"/><path opacity=".626" d="M373.072-343.243a18.5 18.5 0 0 1 13.088 17.369l7.666 439.187a18.499 18.499 0 0 1-12.474 17.814L-33.97 274.135a18.5 18.5 0 0 1-20.798-6.359l-264.35-350.804a18.5 18.5 0 0 1-.379-21.744l251.945-359.816a18.501 18.501 0 0 1 20.564-7.081l420.06 128.426Z" stroke="url(#aj)"/><path opacity=".636" d="M374.96-342.331a18.5 18.5 0 0 1 12.783 17.595v438.292c0 8.014-5.16 15.118-12.783 17.594L-41.88 266.59a18.5 18.5 0 0 1-20.684-6.72L-320.186-94.716a18.5 18.5 0 0 1 0-21.748L-62.564-471.05a18.501 18.501 0 0 1 20.684-6.721l416.84 135.44Z" stroke="url(#ak)"/><path opacity=".646" d="M376.74-341.37a18.499 18.499 0 0 1 12.474 17.815l-7.633 437.264a18.502 18.502 0 0 1-13.088 17.369L-49.728 258.941a18.501 18.501 0 0 1-20.563-7.081l-250.843-358.24a18.5 18.5 0 0 1 .38-21.745l263.192-349.267a18.5 18.5 0 0 1 20.797-6.359L376.74-341.37Z" stroke="url(#al)"/><path opacity=".657" d="M378.407-340.362a18.5 18.5 0 0 1 12.161 18.03l-15.229 436.103a18.499 18.499 0 0 1-13.389 17.137l-419.465 120.28a18.5 18.5 0 0 1-20.437-7.438l-244.014-361.767a18.499 18.499 0 0 1 .759-21.734l268.656-343.864a18.5 18.5 0 0 1 20.905-5.994l410.053 149.247Z" stroke="url(#am)"/><path opacity=".667" d="M379.964-339.309a18.501 18.501 0 0 1 11.845 18.24l-22.788 434.81a18.5 18.5 0 0 1-13.686 16.902L-65.236 243.334a18.5 18.5 0 0 1-20.304-7.793l-237.14-365.164a18.5 18.5 0 0 1 1.139-21.718l274.01-338.375a18.5 18.5 0 0 1 21.007-5.629l406.488 156.036Z" stroke="url(#an)"/><path opacity=".677" d="M381.408-338.213a18.5 18.5 0 0 1 11.525 18.443l-30.306 433.387a18.5 18.5 0 0 1-13.979 16.66L-72.893 235.379a18.5 18.5 0 0 1-20.165-8.147l-230.221-368.431a18.501 18.501 0 0 1 1.517-21.695l279.257-332.804a18.5 18.5 0 0 1 21.102-5.262l402.811 162.747Z" stroke="url(#ao)"/><path opacity=".687" d="M382.739-337.078a18.5 18.5 0 0 1 11.201 18.642l-37.78 431.835a18.5 18.5 0 0 1-14.268 16.413l-422.374 97.513a18.5 18.5 0 0 1-20.019-8.498l-223.261-371.568a18.5 18.5 0 0 1 1.895-21.665l284.392-327.155a18.499 18.499 0 0 1 21.19-4.892L382.74-337.078Z" stroke="url(#ap)"/><path opacity=".697" d="M383.958-335.903a18.5 18.5 0 0 1 10.874 18.835l-45.211 430.153a18.501 18.501 0 0 1-14.552 16.162l-423.071 89.926a18.5 18.5 0 0 1-19.868-8.845l-216.261-374.576a18.5 18.5 0 0 1 2.273-21.629l289.414-321.427a18.5 18.5 0 0 1 21.273-4.521l395.129 175.922Z" stroke="url(#aq)"/><path opacity=".707" d="M385.061-334.691a18.499 18.499 0 0 1 10.544 19.021l-52.594 428.344a18.502 18.502 0 0 1-14.832 15.906l-423.632 82.345a18.498 18.498 0 0 1-19.71-9.191l-209.225-377.451a18.5 18.5 0 0 1 2.65-21.586l294.324-315.624a18.501 18.501 0 0 1 21.349-4.15L385.06-334.691Z" stroke="url(#ar)"/><path opacity=".717" d="M386.053-333.446a18.502 18.502 0 0 1 10.21 19.203l-59.928 426.408a18.5 18.5 0 0 1-15.107 15.645l-424.058 74.772a18.5 18.5 0 0 1-19.547-9.533l-202.154-380.197a18.501 18.501 0 0 1 3.027-21.536l299.12-309.747a18.5 18.5 0 0 1 21.417-3.777l387.02 188.762Z" stroke="url(#as)"/><path opacity=".727" d="M386.928-332.168a18.5 18.5 0 0 1 9.873 19.378l-67.21 424.348a18.5 18.5 0 0 1-15.378 15.378l-424.348 67.21a18.5 18.5 0 0 1-19.378-9.873l-195.051-382.81a18.5 18.5 0 0 1 3.402-21.48l303.8-303.8a18.5 18.5 0 0 1 21.48-3.402l382.81 195.051Z" stroke="url(#at)"/><path opacity=".737" d="M387.69-330.859a18.5 18.5 0 0 1 9.533 19.547l-74.438 422.164a18.5 18.5 0 0 1-15.645 15.107l-424.504 59.66a18.498 18.498 0 0 1-19.202-10.21l-187.919-385.291a18.501 18.501 0 0 1 3.776-21.418l308.364-297.783a18.499 18.499 0 0 1 21.536-3.027L387.69-330.859Z" stroke="url(#au)"/><path opacity=".747" d="M388.335-329.524a18.502 18.502 0 0 1 9.191 19.711l-81.612 419.856a18.5 18.5 0 0 1-15.906 14.832L-124.518 177a18.5 18.5 0 0 1-19.021-10.543l-180.76-387.641a18.5 18.5 0 0 1 4.15-21.349l312.81-291.7a18.501 18.501 0 0 1 21.586-2.651l374.088 207.36Z" stroke="url(#av)"/><path opacity=".758" d="M388.867-328.162a18.5 18.5 0 0 1 8.846 19.868l-88.727 417.427a18.5 18.5 0 0 1-16.162 14.552l-424.415 44.608a18.5 18.5 0 0 1-18.834-10.874l-173.576-389.858a18.5 18.5 0 0 1 4.522-21.273L-2.34-539.265a18.499 18.499 0 0 1 21.629-2.273l369.578 213.376Z" stroke="url(#aw)"/><path opacity=".768" d="M389.283-326.776a18.5 18.5 0 0 1 8.497 20.019l-95.782 414.878a18.5 18.5 0 0 1-16.413 14.268l-424.171 37.11a18.5 18.5 0 0 1-18.642-11.201l-166.369-391.942a18.5 18.5 0 0 1 4.892-21.191L2.643-544.179a18.502 18.502 0 0 1 21.666-1.896l364.974 219.299Z" stroke="url(#ax)"/><path opacity=".778" d="M389.582-325.369a18.5 18.5 0 0 1 8.147 20.165l-102.776 412.21a18.498 18.498 0 0 1-16.66 13.979l-423.794 29.635a18.5 18.5 0 0 1-18.443-11.525L-323.088-254.8a18.498 18.498 0 0 1 5.261-21.102L7.611-548.977a18.501 18.501 0 0 1 21.695-1.517l360.276 225.125Z" stroke="url(#ay)"/><path opacity=".788" d="M389.765-323.941a18.5 18.5 0 0 1 7.794 20.303L287.854 105.787a18.502 18.502 0 0 1-16.902 13.687l-423.287 22.183a18.5 18.5 0 0 1-18.239-11.845l-151.901-395.714a18.5 18.5 0 0 1 5.629-21.007L12.561-553.658a18.5 18.5 0 0 1 21.719-1.138l355.485 230.855Z" stroke="url(#az)"/><path opacity=".798" d="M389.835-322.497a18.5 18.5 0 0 1 7.438 20.436L280.704 104.462a18.5 18.5 0 0 1-17.138 13.39l-422.648 14.759a18.5 18.5 0 0 1-18.03-12.161l-144.642-397.402a18.502 18.502 0 0 1 5.994-20.906L17.495-558.225a18.502 18.502 0 0 1 21.735-.759l350.605 236.487Z" stroke="url(#aA)"/><path opacity=".808" d="M389.786-321.038a18.5 18.5 0 0 1 7.08 20.564L273.502 103.033a18.499 18.499 0 0 1-17.369 13.088l-421.88 7.364a18.499 18.499 0 0 1-17.815-12.474l-137.372-398.956a18.5 18.5 0 0 1 6.359-20.798l336.98-253.932a18.5 18.5 0 0 1 21.744-.38l345.637 242.017Z" stroke="url(#aB)"/><path opacity=".818" d="M389.624-319.565a18.5 18.5 0 0 1 6.72 20.684L266.253 101.497a18.497 18.497 0 0 1-17.594 12.783h-420.983a18.497 18.497 0 0 1-17.594-12.783l-130.091-400.378a18.5 18.5 0 0 1 6.72-20.684L27.293-567.012a18.5 18.5 0 0 1 21.748 0l340.583 247.447Z" stroke="url(#aC)"/><path opacity=".828" d="M389.344-318.081a18.5 18.5 0 0 1 6.359 20.797L258.957 99.854a18.5 18.5 0 0 1-17.815 12.474l-419.957-7.33a18.502 18.502 0 0 1-17.369-13.088L-318.986-309.76a18.5 18.5 0 0 1 7.08-20.563L32.156-571.236a18.499 18.499 0 0 1 21.744.38l335.444 252.775Z" stroke="url(#aD)"/><path opacity=".838" d="M388.95-316.587a18.5 18.5 0 0 1 5.995 20.905L251.618 98.106a18.5 18.5 0 0 1-18.03 12.161l-418.804-14.625a18.5 18.5 0 0 1-17.138-13.39l-115.509-402.825a18.5 18.5 0 0 1 7.439-20.437L36.992-575.345a18.5 18.5 0 0 1 21.735.759L388.95-316.587Z" stroke="url(#aE)"/><path opacity=".848" d="M388.438-315.088a18.5 18.5 0 0 1 5.629 21.007L244.234 96.247a18.501 18.501 0 0 1-18.239 11.845L-191.53 86.21a18.501 18.501 0 0 1-16.902-13.686l-108.211-403.852a18.5 18.5 0 0 1 7.793-20.303L41.797-579.344a18.501 18.501 0 0 1 21.718 1.138l324.923 263.118Z" stroke="url(#aF)"/><path opacity=".859" d="M387.813-313.583a18.498 18.498 0 0 1 5.261 21.102L236.812 94.281a18.5 18.5 0 0 1-18.443 11.525l-416.12-29.098a18.5 18.5 0 0 1-16.66-13.98l-100.915-404.745a18.502 18.502 0 0 1 8.147-20.164L46.573-583.23a18.5 18.5 0 0 1 21.695 1.517l319.545 268.13Z" stroke="url(#aG)"/><path opacity=".869" d="M387.071-312.076a18.5 18.5 0 0 1 4.892 21.191L229.351 92.205a18.5 18.5 0 0 1-18.642 11.201l-414.591-36.272a18.5 18.5 0 0 1-16.413-14.268l-93.619-405.508a18.5 18.5 0 0 1 8.498-20.019l356.73-214.346a18.502 18.502 0 0 1 21.666 1.896l314.091 273.035Z" stroke="url(#aH)"/><path opacity=".879" d="M386.213-310.567a18.5 18.5 0 0 1 4.522 21.273L221.853 90.022a18.5 18.5 0 0 1-18.835 10.874L-209.92 57.494a18.5 18.5 0 0 1-16.162-14.552l-86.328-406.139a18.5 18.5 0 0 1 8.846-19.868L56.021-590.672a18.5 18.5 0 0 1 21.629 2.274l308.563 277.831Z" stroke="url(#aI)"/><path opacity=".889" d="M385.242-309.061a18.5 18.5 0 0 1 4.149 21.349L214.321 87.727A18.5 18.5 0 0 1 195.3 98.271l-411.164-50.485a18.5 18.5 0 0 1-15.905-14.832l-79.043-406.64a18.5 18.5 0 0 1 9.191-19.711L60.692-594.23a18.501 18.501 0 0 1 21.586 2.651l302.964 282.518Z" stroke="url(#aJ)"/><path opacity=".899" d="M384.155-307.558a18.5 18.5 0 0 1 3.777 21.418L206.758 85.322a18.501 18.501 0 0 1-19.203 10.21l-409.267-57.518a18.5 18.5 0 0 1-15.645-15.108l-71.767-407.011a18.502 18.502 0 0 1 9.534-19.547L65.323-597.68a18.502 18.502 0 0 1 21.537 3.027l297.295 287.095Z" stroke="url(#aK)"/><path opacity=".909" d="M382.953-306.059a18.5 18.5 0 0 1 3.402 21.48L199.162 82.808a18.5 18.5 0 0 1-19.378 9.873L-227.467 28.18a18.499 18.499 0 0 1-15.378-15.378l-64.503-407.252a18.499 18.499 0 0 1 9.874-19.377L69.913-601.021a18.5 18.5 0 0 1 21.48 3.402l291.56 291.56Z" stroke="url(#aL)"/><path opacity=".919" d="M381.639-304.569a18.5 18.5 0 0 1 3.027 21.537L191.541 80.183a18.5 18.5 0 0 1-19.547 9.533l-405.117-71.433A18.499 18.499 0 0 1-248.23 2.64l-57.251-407.363a18.497 18.497 0 0 1 10.21-19.202L74.462-604.258a18.501 18.501 0 0 1 21.418 3.777l285.759 295.912Z" stroke="url(#aM)"/><path opacity=".929" d="M380.211-303.088a18.5 18.5 0 0 1 2.65 21.586L183.893 77.446a18.5 18.5 0 0 1-19.71 9.191L-238.682 8.328a18.5 18.5 0 0 1-14.832-15.905l-50.016-407.346a18.499 18.499 0 0 1 10.544-19.021L78.967-607.389a18.499 18.499 0 0 1 21.348 4.15l279.896 300.151Z" stroke="url(#aN)"/><path opacity=".939" d="M378.669-301.618a18.499 18.499 0 0 1 2.273 21.629L176.221 74.599a18.501 18.501 0 0 1-19.868 8.846L-244.143-1.683a18.498 18.498 0 0 1-14.552-16.162l-42.799-407.201a18.5 18.5 0 0 1 10.874-18.834L83.425-610.415a18.5 18.5 0 0 1 21.273 4.521l273.971 304.276Z" stroke="url(#aO)"/><path opacity=".949" d="M377.013-300.163a18.501 18.501 0 0 1 1.895 21.666L168.525 71.64a18.5 18.5 0 0 1-20.02 8.497L-249.507-11.75a18.5 18.5 0 0 1-14.268-16.414l-35.601-406.927a18.497 18.497 0 0 1 11.201-18.641L87.834-613.34a18.5 18.5 0 0 1 21.191 4.892l267.988 308.285Z" stroke="url(#aP)"/><path opacity=".96" d="M375.247-298.722a18.5 18.5 0 0 1 1.517 21.695L160.812 68.57a18.5 18.5 0 0 1-20.165 8.147l-395.415-98.588a18.5 18.5 0 0 1-13.979-16.66l-28.427-406.528a18.498 18.498 0 0 1 11.525-18.443l377.846-152.66a18.501 18.501 0 0 1 21.102 5.262l261.948 312.178Z" stroke="url(#aQ)"/><path opacity=".97" d="M373.368-297.3a18.5 18.5 0 0 1 1.138 21.718L153.079 65.387a18.5 18.5 0 0 1-20.304 7.794L-259.93-32.044a18.498 18.498 0 0 1-13.686-16.902l-21.278-406.001a18.498 18.498 0 0 1 11.845-18.239L96.506-618.884a18.5 18.5 0 0 1 21.007 5.629L373.368-297.3Z" stroke="url(#aR)"/><path opacity=".98" d="M371.381-295.896a18.5 18.5 0 0 1 .759 21.734L145.333 62.093a18.5 18.5 0 0 1-20.437 7.438L-264.988-42.266a18.499 18.499 0 0 1-13.389-17.138l-14.156-405.349a18.5 18.5 0 0 1 12.162-18.03l381.136-138.723a18.5 18.5 0 0 1 20.905 5.995l249.711 319.615Z" stroke="url(#aS)"/><path opacity=".99" d="M369.28-294.515a18.5 18.5 0 0 1 .38 21.745L137.571 58.688a18.5 18.5 0 0 1-20.563 7.08L-269.947-52.535a18.5 18.5 0 0 1-13.088-17.37l-7.062-404.573a18.5 18.5 0 0 1 12.474-17.815l382.59-131.736a18.5 18.5 0 0 1 20.798 6.359L369.28-294.515Z" stroke="url(#aT)"/><path d="M367.071-293.155a18.5 18.5 0 0 1 0 21.748L129.797 55.171a18.5 18.5 0 0 1-20.683 6.72L-274.803-62.85a18.5 18.5 0 0 1-12.783-17.595v-403.673a18.5 18.5 0 0 1 12.784-17.595l383.916-124.741a18.499 18.499 0 0 1 20.683 6.72l237.274 326.579Z" stroke="url(#aU)"/></g><defs><linearGradient id="a" x1="-89.838" y1="236.032" x2="438.189" y2="161.823" gradientUnits="userSpaceOnUse"><stop stop-color="#fff" stop-opacity=".13"/><stop offset="1" stop-color="#9B9B9B"/></linearGradient><linearGradient id="b" x1="-91.611" y1="226.54" x2="436.665" y2="161.676" gradientUnits="userSpaceOnUse"><stop stop-color="#fff" stop-opacity=".13"/><stop offset="1" stop-color="#9B9B9B"/></linearGradient><linearGradient id="c" x1="-93.305" y1="217.055" x2="435.055" y2="161.522" gradientUnits="userSpaceOnUse"><stop stop-color="#fff" stop-opacity=".13"/><stop offset="1" stop-color="#9B9B9B"/></linearGradient><linearGradient id="d" x1="-94.918" y1="207.578" x2="433.361" y2="161.359" gradientUnits="userSpaceOnUse"><stop stop-color="#fff" stop-opacity=".13"/><stop offset="1" stop-color="#9B9B9B"/></linearGradient><linearGradient id="e" x1="-96.451" y1="198.11" x2="431.584" y2="161.186" gradientUnits="userSpaceOnUse"><stop stop-color="#fff" stop-opacity=".13"/><stop offset="1" stop-color="#9B9B9B"/></linearGradient><linearGradient id="f" x1="-97.903" y1="188.653" x2="429.725" y2="161.001" gradientUnits="userSpaceOnUse"><stop stop-color="#fff" stop-opacity=".13"/><stop offset="1" stop-color="#9B9B9B"/></linearGradient><linearGradient id="g" x1="-99.274" y1="179.208" x2="427.783" y2="160.803" gradientUnits="userSpaceOnUse"><stop stop-color="#fff" stop-opacity=".13"/><stop offset="1" stop-color="#9B9B9B"/></linearGradient><linearGradient id="h" x1="-100.568" y1="169.777" x2="425.757" y2="160.59" gradientUnits="userSpaceOnUse"><stop stop-color="#fff" stop-opacity=".13"/><stop offset="1" stop-color="#9B9B9B"/></linearGradient><linearGradient id="i" x1="-101.782" y1="160.361" x2="423.65" y2="160.361" gradientUnits="userSpaceOnUse"><stop stop-color="#fff" stop-opacity=".13"/><stop offset="1" stop-color="#9B9B9B"/></linearGradient><linearGradient id="j" x1="-102.917" y1="150.961" x2="421.463" y2="160.114" gradientUnits="userSpaceOnUse"><stop stop-color="#fff" stop-opacity=".13"/><stop offset="1" stop-color="#9B9B9B"/></linearGradient><linearGradient id="k" x1="-103.975" y1="141.579" x2="419.192" y2="159.848" gradientUnits="userSpaceOnUse"><stop stop-color="#fff" stop-opacity=".13"/><stop offset="1" stop-color="#9B9B9B"/></linearGradient><linearGradient id="l" x1="-104.954" y1="132.215" x2="416.843" y2="159.562" gradientUnits="userSpaceOnUse"><stop stop-color="#fff" stop-opacity=".13"/><stop offset="1" stop-color="#9B9B9B"/></linearGradient><linearGradient id="m" x1="-105.857" y1="122.873" x2="414.412" y2="159.254" gradientUnits="userSpaceOnUse"><stop stop-color="#fff" stop-opacity=".13"/><stop offset="1" stop-color="#9B9B9B"/></linearGradient><linearGradient id="n" x1="-106.683" y1="113.552" x2="411.903" y2="158.923" gradientUnits="userSpaceOnUse"><stop stop-color="#fff" stop-opacity=".13"/><stop offset="1" stop-color="#9B9B9B"/></linearGradient><linearGradient id="o" x1="-107.433" y1="104.255" x2="409.315" y2="158.568" gradientUnits="userSpaceOnUse"><stop stop-color="#fff" stop-opacity=".13"/><stop offset="1" stop-color="#9B9B9B"/></linearGradient><linearGradient id="p" x1="-108.107" y1="94.982" x2="406.649" y2="158.186" gradientUnits="userSpaceOnUse"><stop stop-color="#fff" stop-opacity=".13"/><stop offset="1" stop-color="#9B9B9B"/></linearGradient><linearGradient id="q" x1="-108.707" y1="85.734" x2="403.903" y2="157.777" gradientUnits="userSpaceOnUse"><stop stop-color="#fff" stop-opacity=".13"/><stop offset="1" stop-color="#9B9B9B"/></linearGradient><linearGradient id="r" x1="-109.232" y1="76.513" x2="401.082" y2="157.339" gradientUnits="userSpaceOnUse"><stop stop-color="#fff" stop-opacity=".13"/><stop offset="1" stop-color="#9B9B9B"/></linearGradient><linearGradient id="s" x1="-109.684" y1="67.321" x2="398.184" y2="156.872" gradientUnits="userSpaceOnUse"><stop stop-color="#fff" stop-opacity=".13"/><stop offset="1" stop-color="#9B9B9B"/></linearGradient><linearGradient id="t" x1="-110.059" y1="58.159" x2="395.213" y2="156.374" gradientUnits="userSpaceOnUse"><stop stop-color="#fff" stop-opacity=".13"/><stop offset="1" stop-color="#9B9B9B"/></linearGradient><linearGradient id="u" x1="-110.367" y1="49.027" x2="392.163" y2="155.843" gradientUnits="userSpaceOnUse"><stop stop-color="#fff" stop-opacity=".13"/><stop offset="1" stop-color="#9B9B9B"/></linearGradient><linearGradient id="v" x1="-110.599" y1="39.926" x2="389.041" y2="155.278" gradientUnits="userSpaceOnUse"><stop stop-color="#fff" stop-opacity=".13"/><stop offset="1" stop-color="#9B9B9B"/></linearGradient><linearGradient id="w" x1="-110.763" y1="30.86" x2="385.844" y2="154.678" gradientUnits="userSpaceOnUse"><stop stop-color="#fff" stop-opacity=".13"/><stop offset="1" stop-color="#9B9B9B"/></linearGradient><linearGradient id="x" x1="-110.856" y1="21.828" x2="382.575" y2="154.042" gradientUnits="userSpaceOnUse"><stop stop-color="#fff" stop-opacity=".13"/><stop offset="1" stop-color="#9B9B9B"/></linearGradient><linearGradient id="y" x1="-110.878" y1="12.832" x2="379.235" y2="153.369" gradientUnits="userSpaceOnUse"><stop stop-color="#fff" stop-opacity=".13"/><stop offset="1" stop-color="#9B9B9B"/></linearGradient><linearGradient id="z" x1="-110.831" y1="3.87" x2="375.823" y2="152.656" gradientUnits="userSpaceOnUse"><stop stop-color="#fff" stop-opacity=".13"/><stop offset="1" stop-color="#9B9B9B"/></linearGradient><linearGradient id="A" x1="-110.718" y1="-5.051" x2="372.341" y2="151.904" gradientUnits="userSpaceOnUse"><stop stop-color="#fff" stop-opacity=".13"/><stop offset="1" stop-color="#9B9B9B"/></linearGradient><linearGradient id="B" x1="-110.537" y1="-13.934" x2="368.789" y2="151.112" gradientUnits="userSpaceOnUse"><stop stop-color="#fff" stop-opacity=".13"/><stop offset="1" stop-color="#9B9B9B"/></linearGradient><linearGradient id="C" x1="-110.291" y1="-22.776" x2="365.167" y2="150.276" gradientUnits="userSpaceOnUse"><stop stop-color="#fff" stop-opacity=".13"/><stop offset="1" stop-color="#9B9B9B"/></linearGradient><linearGradient id="D" x1="-109.977" y1="-31.578" x2="361.48" y2="149.397" gradientUnits="userSpaceOnUse"><stop stop-color="#fff" stop-opacity=".13"/><stop offset="1" stop-color="#9B9B9B"/></linearGradient><linearGradient id="E" x1="-109.601" y1="-40.337" x2="357.724" y2="148.474" gradientUnits="userSpaceOnUse"><stop stop-color="#fff" stop-opacity=".13"/><stop offset="1" stop-color="#9B9B9B"/></linearGradient><linearGradient id="F" x1="-109.158" y1="-49.053" x2="353.904" y2="147.506" gradientUnits="userSpaceOnUse"><stop stop-color="#fff" stop-opacity=".13"/><stop offset="1" stop-color="#9B9B9B"/></linearGradient><linearGradient id="G" x1="-108.655" y1="-57.724" x2="350.018" y2="146.49" gradientUnits="userSpaceOnUse"><stop stop-color="#fff" stop-opacity=".13"/><stop offset="1" stop-color="#9B9B9B"/></linearGradient><linearGradient id="H" x1="-108.088" y1="-66.35" x2="346.069" y2="145.427" gradientUnits="userSpaceOnUse"><stop stop-color="#fff" stop-opacity=".13"/><stop offset="1" stop-color="#9B9B9B"/></linearGradient><linearGradient id="I" x1="-107.462" y1="-74.928" x2="342.055" y2="144.316" gradientUnits="userSpaceOnUse"><stop stop-color="#fff" stop-opacity=".13"/><stop offset="1" stop-color="#9B9B9B"/></linearGradient><linearGradient id="J" x1="-106.775" y1="-83.461" x2="337.981" y2="143.153" gradientUnits="userSpaceOnUse"><stop stop-color="#fff" stop-opacity=".13"/><stop offset="1" stop-color="#9B9B9B"/></linearGradient><linearGradient id="K" x1="-106.03" y1="-91.944" x2="333.844" y2="141.941" gradientUnits="userSpaceOnUse"><stop stop-color="#fff" stop-opacity=".13"/><stop offset="1" stop-color="#9B9B9B"/></linearGradient><linearGradient id="L" x1="-105.225" y1="-100.377" x2="329.649" y2="140.677" gradientUnits="userSpaceOnUse"><stop stop-color="#fff" stop-opacity=".13"/><stop offset="1" stop-color="#9B9B9B"/></linearGradient><linearGradient id="M" x1="-104.364" y1="-108.761" x2="325.394" y2="139.359" gradientUnits="userSpaceOnUse"><stop stop-color="#fff" stop-opacity=".13"/><stop offset="1" stop-color="#9B9B9B"/></linearGradient><linearGradient id="N" x1="-103.445" y1="-117.093" x2="321.083" y2="137.989" gradientUnits="userSpaceOnUse"><stop stop-color="#fff" stop-opacity=".13"/><stop offset="1" stop-color="#9B9B9B"/></linearGradient><linearGradient id="O" x1="-102.474" y1="-125.373" x2="316.713" y2="136.564" gradientUnits="userSpaceOnUse"><stop stop-color="#fff" stop-opacity=".13"/><stop offset="1" stop-color="#9B9B9B"/></linearGradient><linearGradient id="P" x1="-101.448" y1="-133.599" x2="312.287" y2="135.084" gradientUnits="userSpaceOnUse"><stop stop-color="#fff" stop-opacity=".13"/><stop offset="1" stop-color="#9B9B9B"/></linearGradient><linearGradient id="Q" x1="-100.368" y1="-141.772" x2="307.808" y2="133.546" gradientUnits="userSpaceOnUse"><stop stop-color="#fff" stop-opacity=".13"/><stop offset="1" stop-color="#9B9B9B"/></linearGradient><linearGradient id="R" x1="-99.237" y1="-149.89" x2="303.275" y2="131.952" gradientUnits="userSpaceOnUse"><stop stop-color="#fff" stop-opacity=".13"/><stop offset="1" stop-color="#9B9B9B"/></linearGradient><linearGradient id="S" x1="-98.056" y1="-157.952" x2="298.689" y2="130.3" gradientUnits="userSpaceOnUse"><stop stop-color="#fff" stop-opacity=".13"/><stop offset="1" stop-color="#9B9B9B"/></linearGradient><linearGradient id="T" x1="-96.825" y1="-165.958" x2="294.052" y2="128.588" gradientUnits="userSpaceOnUse"><stop stop-color="#fff" stop-opacity=".13"/><stop offset="1" stop-color="#9B9B9B"/></linearGradient><linearGradient id="U" x1="-95.543" y1="-173.907" x2="289.366" y2="126.817" gradientUnits="userSpaceOnUse"><stop stop-color="#fff" stop-opacity=".13"/><stop offset="1" stop-color="#9B9B9B"/></linearGradient><linearGradient id="V" x1="-94.216" y1="-181.798" x2="284.631" y2="124.985" gradientUnits="userSpaceOnUse"><stop stop-color="#fff" stop-opacity=".13"/><stop offset="1" stop-color="#9B9B9B"/></linearGradient><linearGradient id="W" x1="-92.841" y1="-189.631" x2="279.849" y2="123.093" gradientUnits="userSpaceOnUse"><stop stop-color="#fff" stop-opacity=".13"/><stop offset="1" stop-color="#9B9B9B"/></linearGradient><linearGradient id="X" x1="-91.422" y1="-197.404" x2="275.018" y2="121.138" gradientUnits="userSpaceOnUse"><stop stop-color="#fff" stop-opacity=".13"/><stop offset="1" stop-color="#9B9B9B"/></linearGradient><linearGradient id="Y" x1="-89.96" y1="-205.117" x2="270.143" y2="119.121" gradientUnits="userSpaceOnUse"><stop stop-color="#fff" stop-opacity=".13"/><stop offset="1" stop-color="#9B9B9B"/></linearGradient><linearGradient id="Z" x1="-88.453" y1="-212.77" x2="265.224" y2="117.039" gradientUnits="userSpaceOnUse"><stop stop-color="#fff" stop-opacity=".13"/><stop offset="1" stop-color="#9B9B9B"/></linearGradient><linearGradient id="aa" x1="-86.906" y1="-220.361" x2="260.262" y2="114.895" gradientUnits="userSpaceOnUse"><stop stop-color="#fff" stop-opacity=".13"/><stop offset="1" stop-color="#9B9B9B"/></linearGradient><linearGradient id="ab" x1="-85.317" y1="-227.89" x2="255.258" y2="112.686" gradientUnits="userSpaceOnUse"><stop stop-color="#fff" stop-opacity=".13"/><stop offset="1" stop-color="#9B9B9B"/></linearGradient><linearGradient id="ac" x1="-83.689" y1="-235.356" x2="250.214" y2="110.411" gradientUnits="userSpaceOnUse"><stop stop-color="#fff" stop-opacity=".13"/><stop offset="1" stop-color="#9B9B9B"/></linearGradient><linearGradient id="ad" x1="-82.024" y1="-242.76" x2="245.13" y2="108.071" gradientUnits="userSpaceOnUse"><stop stop-color="#fff" stop-opacity=".13"/><stop offset="1" stop-color="#9B9B9B"/></linearGradient><linearGradient id="ae" x1="-80.32" y1="-250.1" x2="240.01" y2="105.664" gradientUnits="userSpaceOnUse"><stop stop-color="#fff" stop-opacity=".13"/><stop offset="1" stop-color="#9B9B9B"/></linearGradient><linearGradient id="af" x1="-78.583" y1="-257.375" x2="234.852" y2="103.191" gradientUnits="userSpaceOnUse"><stop stop-color="#fff" stop-opacity=".13"/><stop offset="1" stop-color="#9B9B9B"/></linearGradient><linearGradient id="ag" x1="-76.81" y1="-264.586" x2="229.659" y2="100.649" gradientUnits="userSpaceOnUse"><stop stop-color="#fff" stop-opacity=".13"/><stop offset="1" stop-color="#9B9B9B"/></linearGradient><linearGradient id="ah" x1="-75.004" y1="-271.731" x2="224.432" y2="98.041" gradientUnits="userSpaceOnUse"><stop stop-color="#fff" stop-opacity=".13"/><stop offset="1" stop-color="#9B9B9B"/></linearGradient><linearGradient id="ai" x1="-73.165" y1="-278.812" x2="219.173" y2="95.363" gradientUnits="userSpaceOnUse"><stop stop-color="#fff" stop-opacity=".13"/><stop offset="1" stop-color="#9B9B9B"/></linearGradient><linearGradient id="aj" x1="-71.297" y1="-285.826" x2="213.88" y2="92.617" gradientUnits="userSpaceOnUse"><stop stop-color="#fff" stop-opacity=".13"/><stop offset="1" stop-color="#9B9B9B"/></linearGradient><linearGradient id="ak" x1="-69.399" y1="-292.774" x2="208.558" y2="89.802" gradientUnits="userSpaceOnUse"><stop stop-color="#fff" stop-opacity=".13"/><stop offset="1" stop-color="#9B9B9B"/></linearGradient><linearGradient id="al" x1="-67.472" y1="-299.655" x2="203.208" y2="86.916" gradientUnits="userSpaceOnUse"><stop stop-color="#fff" stop-opacity=".13"/><stop offset="1" stop-color="#9B9B9B"/></linearGradient><linearGradient id="am" x1="-65.519" y1="-306.468" x2="197.829" y2="83.961" gradientUnits="userSpaceOnUse"><stop stop-color="#fff" stop-opacity=".13"/><stop offset="1" stop-color="#9B9B9B"/></linearGradient><linearGradient id="an" x1="-63.538" y1="-313.214" x2="192.426" y2="80.936" gradientUnits="userSpaceOnUse"><stop stop-color="#fff" stop-opacity=".13"/><stop offset="1" stop-color="#9B9B9B"/></linearGradient><linearGradient id="ao" x1="-61.534" y1="-319.892" x2="186.997" y2="77.84" gradientUnits="userSpaceOnUse"><stop stop-color="#fff" stop-opacity=".13"/><stop offset="1" stop-color="#9B9B9B"/></linearGradient><linearGradient id="ap" x1="-59.506" y1="-326.503" x2="181.544" y2="74.672" gradientUnits="userSpaceOnUse"><stop stop-color="#fff" stop-opacity=".13"/><stop offset="1" stop-color="#9B9B9B"/></linearGradient><linearGradient id="aq" x1="-57.456" y1="-333.044" x2="176.069" y2="71.434" gradientUnits="userSpaceOnUse"><stop stop-color="#fff" stop-opacity=".13"/><stop offset="1" stop-color="#9B9B9B"/></linearGradient><linearGradient id="ar" x1="-55.387" y1="-339.517" x2="170.572" y2="68.124" gradientUnits="userSpaceOnUse"><stop stop-color="#fff" stop-opacity=".13"/><stop offset="1" stop-color="#9B9B9B"/></linearGradient><linearGradient id="as" x1="-53.297" y1="-345.921" x2="165.057" y2="64.743" gradientUnits="userSpaceOnUse"><stop stop-color="#fff" stop-opacity=".13"/><stop offset="1" stop-color="#9B9B9B"/></linearGradient><linearGradient id="at" x1="-51.19" y1="-352.255" x2="159.522" y2="61.289" gradientUnits="userSpaceOnUse"><stop stop-color="#fff" stop-opacity=".13"/><stop offset="1" stop-color="#9B9B9B"/></linearGradient><linearGradient id="au" x1="-49.065" y1="-358.52" x2="153.971" y2="57.764" gradientUnits="userSpaceOnUse"><stop stop-color="#fff" stop-opacity=".13"/><stop offset="1" stop-color="#9B9B9B"/></linearGradient><linearGradient id="av" x1="-46.926" y1="-364.717" x2="148.402" y2="54.166" gradientUnits="userSpaceOnUse"><stop stop-color="#fff" stop-opacity=".13"/><stop offset="1" stop-color="#9B9B9B"/></linearGradient><linearGradient id="aw" x1="-44.77" y1="-370.844" x2="142.822" y2="50.495" gradientUnits="userSpaceOnUse"><stop stop-color="#fff" stop-opacity=".13"/><stop offset="1" stop-color="#9B9B9B"/></linearGradient><linearGradient id="ax" x1="-42.602" y1="-376.9" x2="137.228" y2="46.753" gradientUnits="userSpaceOnUse"><stop stop-color="#fff" stop-opacity=".13"/><stop offset="1" stop-color="#9B9B9B"/></linearGradient><linearGradient id="ay" x1="-40.424" y1="-382.887" x2="131.621" y2="42.938" gradientUnits="userSpaceOnUse"><stop stop-color="#fff" stop-opacity=".13"/><stop offset="1" stop-color="#9B9B9B"/></linearGradient><linearGradient id="az" x1="-38.235" y1="-388.804" x2="126.003" y2="39.05" gradientUnits="userSpaceOnUse"><stop stop-color="#fff" stop-opacity=".13"/><stop offset="1" stop-color="#9B9B9B"/></linearGradient><linearGradient id="aA" x1="-36.035" y1="-394.651" x2="120.378" y2="35.09" gradientUnits="userSpaceOnUse"><stop stop-color="#fff" stop-opacity=".13"/><stop offset="1" stop-color="#9B9B9B"/></linearGradient><linearGradient id="aB" x1="-33.829" y1="-400.428" x2="114.743" y2="31.057" gradientUnits="userSpaceOnUse"><stop stop-color="#fff" stop-opacity=".13"/><stop offset="1" stop-color="#9B9B9B"/></linearGradient><linearGradient id="aC" x1="-31.614" y1="-406.136" x2="109.105" y2="26.951" gradientUnits="userSpaceOnUse"><stop stop-color="#fff" stop-opacity=".13"/><stop offset="1" stop-color="#9B9B9B"/></linearGradient><linearGradient id="aD" x1="-29.395" y1="-411.774" x2="103.459" y2="22.772" gradientUnits="userSpaceOnUse"><stop stop-color="#fff" stop-opacity=".13"/><stop offset="1" stop-color="#9B9B9B"/></linearGradient><linearGradient id="aE" x1="-27.171" y1="-417.341" x2="97.811" y2="18.523" gradientUnits="userSpaceOnUse"><stop stop-color="#fff" stop-opacity=".13"/><stop offset="1" stop-color="#9B9B9B"/></linearGradient><linearGradient id="aF" x1="-24.945" y1="-422.84" x2="92.159" y2="14.198" gradientUnits="userSpaceOnUse"><stop stop-color="#fff" stop-opacity=".13"/><stop offset="1" stop-color="#9B9B9B"/></linearGradient><linearGradient id="aG" x1="-22.716" y1="-428.268" x2="86.507" y2="9.804" gradientUnits="userSpaceOnUse"><stop stop-color="#fff" stop-opacity=".13"/><stop offset="1" stop-color="#9B9B9B"/></linearGradient><linearGradient id="aH" x1="-20.488" y1="-433.628" x2="80.855" y2="5.335" gradientUnits="userSpaceOnUse"><stop stop-color="#fff" stop-opacity=".13"/><stop offset="1" stop-color="#9B9B9B"/></linearGradient><linearGradient id="aI" x1="-18.261" y1="-438.916" x2="75.202" y2=".797" gradientUnits="userSpaceOnUse"><stop stop-color="#fff" stop-opacity=".13"/><stop offset="1" stop-color="#9B9B9B"/></linearGradient><linearGradient id="aJ" x1="-16.035" y1="-444.138" x2="69.554" y2="-3.816" gradientUnits="userSpaceOnUse"><stop stop-color="#fff" stop-opacity=".13"/><stop offset="1" stop-color="#9B9B9B"/></linearGradient><linearGradient id="aK" x1="-13.813" y1="-449.29" x2="63.91" y2="-8.499" gradientUnits="userSpaceOnUse"><stop stop-color="#fff" stop-opacity=".13"/><stop offset="1" stop-color="#9B9B9B"/></linearGradient><linearGradient id="aL" x1="-11.597" y1="-454.372" x2="58.269" y2="-13.253" gradientUnits="userSpaceOnUse"><stop stop-color="#fff" stop-opacity=".13"/><stop offset="1" stop-color="#9B9B9B"/></linearGradient><linearGradient id="aM" x1="-9.384" y1="-459.386" x2="52.637" y2="-18.079" gradientUnits="userSpaceOnUse"><stop stop-color="#fff" stop-opacity=".13"/><stop offset="1" stop-color="#9B9B9B"/></linearGradient><linearGradient id="aN" x1="-7.179" y1="-464.332" x2="47.012" y2="-22.975" gradientUnits="userSpaceOnUse"><stop stop-color="#fff" stop-opacity=".13"/><stop offset="1" stop-color="#9B9B9B"/></linearGradient><linearGradient id="aO" x1="-4.983" y1="-469.21" x2="41.396" y2="-27.942" gradientUnits="userSpaceOnUse"><stop stop-color="#fff" stop-opacity=".13"/><stop offset="1" stop-color="#9B9B9B"/></linearGradient><linearGradient id="aP" x1="-2.798" y1="-474.02" x2="35.788" y2="-32.98" gradientUnits="userSpaceOnUse"><stop stop-color="#fff" stop-opacity=".13"/><stop offset="1" stop-color="#9B9B9B"/></linearGradient><linearGradient id="aQ" x1="-.62" y1="-478.763" x2="30.195" y2="-38.087" gradientUnits="userSpaceOnUse"><stop stop-color="#fff" stop-opacity=".13"/><stop offset="1" stop-color="#9B9B9B"/></linearGradient><linearGradient id="aR" x1="1.544" y1="-483.439" x2="24.612" y2="-43.264" gradientUnits="userSpaceOnUse"><stop stop-color="#fff" stop-opacity=".13"/><stop offset="1" stop-color="#9B9B9B"/></linearGradient><linearGradient id="aS" x1="3.697" y1="-488.048" x2="19.046" y2="-48.51" gradientUnits="userSpaceOnUse"><stop stop-color="#fff" stop-opacity=".13"/><stop offset="1" stop-color="#9B9B9B"/></linearGradient><linearGradient id="aT" x1="5.834" y1="-492.591" x2="13.493" y2="-53.825" gradientUnits="userSpaceOnUse"><stop stop-color="#fff" stop-opacity=".13"/><stop offset="1" stop-color="#9B9B9B"/></linearGradient><linearGradient id="aU" x1="7.957" y1="-497.068" x2="7.957" y2="-59.207" gradientUnits="userSpaceOnUse"><stop stop-color="#fff" stop-opacity=".13"/><stop offset="1" stop-color="#9B9B9B"/></linearGradient></defs></svg>