<svg id="Layer_1" data-name="Layer 1" xmlns="http://www.w3.org/2000/svg" width="1343.62" height="477.92" viewBox="0 0 1343.62 477.92">
  <defs>
    <style>
      .cls-1 {
        fill: #fff;
      }
    </style>
  </defs>
  <g>
    <path class="cls-1" d="M913.23,454.28H868.75V289.51h44.48Zm35.84,0h-46.8V417.92h40.87q9.93,0,14.12-3.54t4.19-11v-1.41q0-7.49-4.19-11t-14.12-3.54H901.37V354h40.36c6.35,0,10.85-1.2,13.47-3.61s3.93-6,3.93-10.7v-.9q0-7.1-3.93-10.51c-2.62-2.28-7.12-3.42-13.47-3.42H901.37V289.51h45.51q30.95,0,44.55,9.8T1005,328.7v1.81q0,14.57-8.06,22.62T971.51,362v1.41q19.08,2.07,27.91,12.12t8.83,28v3q0,24.1-14.18,36T949.07,454.28Z" transform="translate(-311.6 -273.98)"/>
    <path class="cls-1" d="M1060.47,457.38q-19.08,0-28.82-9.74T1021.92,420v-3.23q0-19.08,11.66-28.1t37.33-12.25l32.36-4.13,2.71,26.05-27.46,4q-7.49,1-10.38,3.55c-1.94,1.67-2.9,4.15-2.9,7.41v.52a9.61,9.61,0,0,0,3,7.35q3,2.84,10.12,2.83a29.22,29.22,0,0,0,10.25-1.61,21.29,21.29,0,0,0,7.22-4.32,22,22,0,0,0,4.58-5.93l6.44,15.47h-7.35a49,49,0,0,1-6.12,15.35,28.78,28.78,0,0,1-12.06,10.57Q1073.49,457.38,1060.47,457.38Zm84.06-3.1h-44.74l1.29-32.49-.9-1.16V381.18l-.39-4.64q0-8.91-5.74-13.09t-19.53-4.19a96.62,96.62,0,0,0-24,3q-11.54,3-22.11,6.84l3.74-34.68a127.94,127.94,0,0,1,14.31-5.23,124.21,124.21,0,0,1,17.15-3.8,130.16,130.16,0,0,1,19.73-1.42q17.65,0,29.46,4.06t18.76,11.48a43.37,43.37,0,0,1,10,17.6,78.45,78.45,0,0,1,3,22.43Z" transform="translate(-311.6 -273.98)"/>
    <path class="cls-1" d="M1217.12,416.89h54v37.39H1162.32V420.37l53-55.83h-52.47V327.28h107.53v33.78Z" transform="translate(-311.6 -273.98)"/>
    <path class="cls-1" d="M1320.14,457.38q-19.08,0-28.82-9.74T1281.59,420v-3.23q0-19.08,11.66-28.1t37.33-12.25l32.36-4.13,2.71,26.05-27.46,4q-7.49,1-10.38,3.55c-1.94,1.67-2.9,4.15-2.9,7.41v.52a9.61,9.61,0,0,0,3,7.35q3,2.84,10.12,2.83a29.22,29.22,0,0,0,10.25-1.61,21.29,21.29,0,0,0,7.22-4.32,22,22,0,0,0,4.58-5.93l6.44,15.47h-7.35a49,49,0,0,1-6.12,15.35A28.78,28.78,0,0,1,1341,453.51Q1333.16,457.38,1320.14,457.38Zm84.06-3.1h-44.74l1.29-32.49-.9-1.16V381.18l-.39-4.64q0-8.91-5.74-13.09t-19.53-4.19a96.62,96.62,0,0,0-24,3q-11.54,3-22.11,6.84l3.74-34.68a127.94,127.94,0,0,1,14.31-5.23,124.21,124.21,0,0,1,17.15-3.8,130.16,130.16,0,0,1,19.73-1.42q17.65,0,29.46,4.06t18.76,11.48a43.37,43.37,0,0,1,10,17.6,78.45,78.45,0,0,1,3,22.43Z" transform="translate(-311.6 -273.98)"/>
    <path class="cls-1" d="M1459,457.38q-19.1,0-28.82-9.74T1420.44,420v-3.23q0-19.08,11.67-28.1t37.33-12.25l32.36-4.13,2.71,26.05-27.46,4q-7.48,1-10.38,3.55c-1.94,1.67-2.9,4.15-2.9,7.41v.52a9.6,9.6,0,0,0,3,7.35q3,2.84,10.13,2.83a29.22,29.22,0,0,0,10.25-1.61,21.39,21.39,0,0,0,7.22-4.32,21.8,21.8,0,0,0,4.57-5.93l6.45,15.47h-7.35a49,49,0,0,1-6.12,15.35,28.84,28.84,0,0,1-12.06,10.57Q1472,457.38,1459,457.38Zm84.06-3.1h-44.74l1.29-32.49-.9-1.16V381.18l-.39-4.64q0-8.91-5.74-13.09t-19.53-4.19a96.56,96.56,0,0,0-24,3q-11.54,3-22.11,6.84l3.74-34.68a127.94,127.94,0,0,1,14.31-5.23,123.88,123.88,0,0,1,17.15-3.8,130.06,130.06,0,0,1,19.73-1.42q17.65,0,29.46,4.06T1530,339.47a43.37,43.37,0,0,1,10,17.6,78.45,78.45,0,0,1,3,22.43Z" transform="translate(-311.6 -273.98)"/>
    <path class="cls-1" d="M1610.88,454.28h-45.65v-127h42.55l-1.8,42h4.9Zm-.65-69-13.15-25.78h10.7q2.58-16.12,11.35-25.21t25.14-9.09a38.61,38.61,0,0,1,4.58.26c1.41.17,2.81.39,4.19.64l2.19,46.42a50.71,50.71,0,0,0-6.13-.77c-2.36-.18-4.66-.26-6.89-.26q-12.12,0-20.12,3.67A26,26,0,0,0,1610.23,385.3Z" transform="translate(-311.6 -273.98)"/>
    <path class="cls-1" d="M914.78,702.26h-46V537.48h46Zm23.21,0H901.63V663.32h34.68q13.41,0,20-7.22t6.58-20.63V603.75q0-13.39-6.58-20.56t-20-7.15H901.63V537.48H938q36.22,0,54.08,17.09t17.86,49.18V635.6q0,32.24-17.79,49.45T938,702.26Z" transform="translate(-311.6 -273.98)"/>
    <path class="cls-1" d="M1053.12,566.11q-12.51,0-18.18-5.61t-5.67-15.15v-1q0-9.54,5.67-15.15t18.18-5.61q12.38,0,18.12,5.61t5.73,15.15v1q0,9.67-5.73,15.21T1053.12,566.11Zm22.82,136.15H1030.3v-127h45.64Z" transform="translate(-311.6 -273.98)"/>
    <path class="cls-1" d="M1158.84,751.9h-5.28q-19.86,0-33.66-3T1099,739.39q-7.1-6.57-7.09-17.28v-.51a22.47,22.47,0,0,1,3.22-12.38,21.07,21.07,0,0,1,9.41-7.8,42.5,42.5,0,0,1,14.83-3.29v-1.29q-10.19-1.8-15.92-6.31t-5.74-13v-.25a17.53,17.53,0,0,1,2.9-10.32,18.2,18.2,0,0,1,8.38-6.32,37.41,37.41,0,0,1,13.22-2.32v-5l30.29,7.74h-8.12a8.67,8.67,0,0,0-4.51.9,3,3,0,0,0-1.42,2.71v.13a3.34,3.34,0,0,0,2.45,3.35,37.42,37.42,0,0,0,7.74,1.55l29.78,3.61q22.69,2.7,33.91,11.15t11.22,26.37v.9q0,13.67-7.55,22.56t-22,13.28Q1179.6,751.89,1158.84,751.9Zm-.9-89.61q-32.24,0-48-11.41t-15.79-31.65v-1.55q0-14.17,6.51-23.72t19.92-14.77q13.41-5.22,34-6.25l68.59-3.61v31.46l-33-.64v1.28a45.24,45.24,0,0,1,15.09,4.26,20.21,20.21,0,0,1,8.76,8.38,27.25,27.25,0,0,1,2.84,13v.78q0,16.75-14.18,25.59T1157.94,662.29Zm-2.32,57h4.25a72.18,72.18,0,0,0,13.41-1q4.9-1,7-2.84a5.72,5.72,0,0,0,2.13-4.44v-.26a5,5,0,0,0-3.42-5,34.62,34.62,0,0,0-9.35-1.87l-37.9-3.73,9.67-.65a14.14,14.14,0,0,0-4.71,1.74,8.9,8.9,0,0,0-3.09,3.1,8.5,8.5,0,0,0-1.1,4.44v.26a7.51,7.51,0,0,0,2.26,5.42c1.5,1.54,4,2.73,7.35,3.54A59.36,59.36,0,0,0,1155.62,719.28Zm.64-87a31.47,31.47,0,0,0,11-1.61,13.07,13.07,0,0,0,6.38-4.71,12.85,12.85,0,0,0,2.13-7.48v-.77a12.14,12.14,0,0,0-8.51-12.18,37.65,37.65,0,0,0-21.85,0,13.22,13.22,0,0,0-6.45,4.64,12.78,12.78,0,0,0-2.13,7.54v.77a12.85,12.85,0,0,0,2.13,7.48,13.14,13.14,0,0,0,6.45,4.71A31.6,31.6,0,0,0,1156.26,632.25Z" transform="translate(-311.6 -273.98)"/>
    <path class="cls-1" d="M1260.82,566.11q-12.49,0-18.18-5.61T1237,545.35v-1q0-9.54,5.67-15.15t18.18-5.61q12.39,0,18.12,5.61t5.74,15.15v1q0,9.67-5.74,15.21T1260.82,566.11Zm22.82,136.15H1238v-127h45.64Z" transform="translate(-311.6 -273.98)"/>
    <path class="cls-1" d="M1393.23,611h-96.82V575.26H1397.1Zm-33.65,94.24q-17.65,0-28-5.35A30.93,30.93,0,0,1,1316.71,684q-4.44-10.58-4.45-26V589.83h45.26v60.34q0,8.25,3.74,12.06T1376,666a51.84,51.84,0,0,0,11.79-1.36,82.41,82.41,0,0,0,10.64-3.15l-3.87,37.39a79.49,79.49,0,0,1-15.47,4.57A100.23,100.23,0,0,1,1359.58,705.22Zm-3.35-126.86h-43.32l-.13-31.85,45-4Z" transform="translate(-311.6 -273.98)"/>
    <path class="cls-1" d="M1445.57,705.35q-19.08,0-28.81-9.73T1407,668v-3.22q0-19.08,11.67-28.11T1456,624.38l32.36-4.12,2.71,26-27.47,4q-7.47,1-10.37,3.54t-2.91,7.42v.51a9.61,9.61,0,0,0,3,7.35q3,2.83,10.13,2.84a29.45,29.45,0,0,0,10.25-1.61A21.72,21.72,0,0,0,1481,666a22.15,22.15,0,0,0,4.57-5.93l6.45,15.47h-7.35a48.9,48.9,0,0,1-6.12,15.34,28.86,28.86,0,0,1-12.06,10.58Q1458.6,705.34,1445.57,705.35Zm84.07-3.09H1484.9l1.29-32.49-.9-1.16V629.15l-.39-4.64q0-8.89-5.74-13.08t-19.53-4.19a96.56,96.56,0,0,0-24.05,3q-11.53,3-22.11,6.84l3.74-34.69a128,128,0,0,1,14.31-5.22,122.45,122.45,0,0,1,17.15-3.8,130.06,130.06,0,0,1,19.73-1.42q17.65,0,29.46,4.06t18.76,11.48a43.39,43.39,0,0,1,10,17.59,78.52,78.52,0,0,1,3,22.44Z" transform="translate(-311.6 -273.98)"/>
    <path class="cls-1" d="M1597.46,702.26h-45.65V532.2h45.65Z" transform="translate(-311.6 -273.98)"/>
  </g>
  <g id="Bazaar_Digital_Logo" data-name="Bazaar Digital Logo">
    <path class="cls-1" d="M656.67,274H311.6V726h55.22V329.19H750.31A107.21,107.21,0,0,0,656.67,274Z" transform="translate(-311.6 -273.98)"/>
    <path class="cls-1" d="M760,353.35H391V726h55.21V408.56H760a107.64,107.64,0,0,0,0-55.21Z" transform="translate(-311.6 -273.98)"/>
    <path class="cls-1" d="M750.31,432.71h-280V726h55.22V487.92H656.67A107.21,107.21,0,0,0,750.31,432.71Z" transform="translate(-311.6 -273.98)"/>
    <path class="cls-1" d="M703,715.48c2.32-1.12,4.63-2.34,6.87-3.63,1.49-.86,3-1.76,4.4-2.67.73-.47,1.45-.94,2.16-1.42,1.43-1,2.84-2,4.2-3,2.05-1.53,4.07-3.16,6-4.83,1.29-1.12,2.57-2.28,3.8-3.46s2.44-2.38,3.64-3.63a108.93,108.93,0,0,0,11.27-14,107,107,0,0,0-11.28-133.6c-1.18-1.25-2.4-2.47-3.63-3.64s-2.51-2.34-3.8-3.45c-1.94-1.68-4-3.31-6-4.84-1.37-1-2.78-2-4.2-3-.71-.48-1.43-1-2.15-1.42-2.16-1.38-4.41-2.71-6.67-3.94-1.51-.82-3.06-1.61-4.61-2.36a105.9,105.9,0,0,0-46.37-10.54h-107V726h107A106,106,0,0,0,703,715.48ZM609.2,631.36H577.31V544.58h86.78v31.89H609.2Z" transform="translate(-311.6 -273.98)"/>
  </g>
</svg>
