<svg id="Layer_1" data-name="Layer 1" xmlns="http://www.w3.org/2000/svg" width="500.63" height="264.87" viewBox="0 0 500.63 264.87">
  <defs>
    <style>
      .cls-1 {
        fill: #fff;
        stroke: #1c2b33;
        stroke-width: 5px;
      }

      .cls-1, .cls-2, .cls-7 {
        stroke-miterlimit: 10;
      }

      .cls-2, .cls-7 {
        fill: #606469;
        stroke: #5f6368;
      }

      .cls-2 {
        stroke-width: 0.25px;
      }

      .cls-3 {
        fill: #ea4335;
      }

      .cls-4 {
        fill: #fbbc04;
      }

      .cls-5 {
        fill: #4284f4;
      }

      .cls-6 {
        fill: #34a853;
      }
    </style>
  </defs>
  <g id="Google_Partner" data-name="Google Partner">
    <rect class="cls-1" x="2.5" y="2.5" width="495.63" height="259.87" rx="37.51"/>
    <g>
      <path class="cls-2" d="M1052.42,476.38c3.87-.12,7.75-.12,11.62,0a9.34,9.34,0,0,1,7.43,4.34c1.37,2.1,1.44,4.77,1.09,7.19s-2.18,4.38-4.12,5.76c-3.5,2.16-7.72,1.17-11.6,1.41-.36,4.08,0,8.18-.15,12.28a25.61,25.61,0,0,1-4.29,0c0-10.33-.06-20.67,0-31m4.45,4.31a66.25,66.25,0,0,0-.07,10.06,68.23,68.23,0,0,0,8.09-.11,5.36,5.36,0,0,0,1.63-8.93c-2.86-1.83-6.46-.78-9.65-1m60.34,4a28.52,28.52,0,0,1,.26-5.77c1.39,0,2.78,0,4.18.07.12,1.88,0,3.76.13,5.64,1.44.77,3.35.18,5,.41a37.93,37.93,0,0,1,0,4c-1.69.08-3.38.11-5,.34,0,4,0,8,0,12.06a2.3,2.3,0,0,0,1.56,2.5,27.61,27.61,0,0,0,3.75-.16,11.35,11.35,0,0,1-.34,4.06,18.11,18.11,0,0,1-6.06-.17c-1.56-1-3.18-2.35-3.27-4.33-.43-4.63.14-9.3-.28-13.93-1.26-.21-2.56-.39-3.84-.57,0-1.26,0-2.51.09-3.73a16.19,16.19,0,0,0,3.87-.45m-40.9,4.38c3.47-6.44,14.41-6.48,17.92,0,1,2.13.78,4.56.8,6.85-.07,3.82.1,7.64-.07,11.46a23.68,23.68,0,0,1-3.37,0c-.37-.52-.72-1-1.08-1.56-2.55,1.61-5.55,3.34-8.65,2.28-4.51-.67-8-5.82-6-10.14,1.25-3.35,4.89-4.8,8.19-5.05,2.33-.17,4.57.63,6.88.76-.22-2.71-2.24-5.32-5.17-5.14-2.58-.43-4.73,1.13-6.42,2.87a13.1,13.1,0,0,1-3.05-2.29m3.62,11.84c.18,2.27,2.64,3.51,4.71,3.38a6.62,6.62,0,0,0,6.1-6.16c-1.78-1.59-4.39-1.66-6.6-1.48s-4.49,1.91-4.21,4.26m54.9-14.11c2-1.21,4.1-2.76,6.62-2.5,4.3-.41,8.19,3.42,8.22,7.66.06,5.11,0,10.22,0,15.33a22.06,22.06,0,0,1-4.3,0c-.19-5.07.27-10.17-.24-15.23-.25-3.25-4.25-4.26-6.88-3.26a6.42,6.42,0,0,0-3.6,5.92c-.1,4.18,0,8.36,0,12.52a22.06,22.06,0,0,1-4.45,0q-.13-11.11,0-22.23a15.76,15.76,0,0,1,4.06.07c.14.41.41,1.25.55,1.65m22.67-.43a10.9,10.9,0,0,1,14.4,1.33,12.34,12.34,0,0,1,2.69,9.51c-5.64.17-11.33,0-17,.08-.5,4.12,3.76,7.51,7.71,6.81,2.33-.05,3.72-2.1,5.28-3.51,1.35-.16,2.51.86,3.65,1.38-2.28,5.63-9.74,7.94-15,5.17-7.82-3.53-8.43-15.79-1.76-20.77m.09,7.12q6.15.26,12.31,0a5.72,5.72,0,0,0-6.18-5c-3-.18-5.21,2.41-6.13,5m28.66-8.88a9.8,9.8,0,0,1,4.9,0,40,40,0,0,1,.14,4.51c-1.64-.08-3.31-.52-4.92-.1a6,6,0,0,0-3.82,5.71c-.1,4.16,0,8.33,0,12.49a18.43,18.43,0,0,1-4.39.06q-.13-11.11,0-22.22a30.94,30.94,0,0,1,3.47-.1c.36.56.76,1.11,1.17,1.66a37.1,37.1,0,0,1,3.5-2M1103,487.24c1.6-.91,3.08-2.3,5-2.32a23.86,23.86,0,0,1,3,.05c.08,1.36.08,2.73.05,4.1-2,.31-4.26-.16-5.85,1.25a5.82,5.82,0,0,0-2.08,3.87c-.17,4.52.09,9-.1,13.56a31.43,31.43,0,0,1-4.23.05c-.12-7.43-.1-14.87,0-22.3a15.62,15.62,0,0,1,3.68.09c.11.41.34,1.22.46,1.62Z" transform="translate(-787.95 -285.6)"/>
      <path class="cls-3" d="M1000.22,330.22c12.39-12.83,30.5-19.55,48.24-18.88,10.4.7,20.8,3.41,29.68,9a47.78,47.78,0,0,1,10.3,8c-2.8,3.28-6.08,6.12-9,9.24-3.17,3-6.11,6.31-9.4,9.24-5.09-4.62-11.41-8.14-18.3-9-7.15-.84-14.69-.5-21.24,2.73A39.15,39.15,0,0,0,1013,356.33a79,79,0,0,0-3.44,7.33c-7.27-5.36-14.24-11.09-21.44-16.53a56.12,56.12,0,0,1,12.09-16.91Z" transform="translate(-787.95 -285.6)"/>
      <path class="cls-4" d="M988.12,347.13c7.2,5.44,14.17,11.17,21.44,16.53-1.08,5.21-2.7,10.54-1.71,15.91.31,2.95,1.19,5.8,1.72,8.71-5.67,4.47-11.42,8.82-17,13.36a30.21,30.21,0,0,1-4.56,3,61,61,0,0,1-6.56-25.05,67.65,67.65,0,0,1,1.18-17.1c1.32-5.26,2.78-10.58,5.53-15.3Z" transform="translate(-787.95 -285.6)"/>
      <path class="cls-5" d="M1046.11,364.14h53a42.56,42.56,0,0,1,6.77.2c3.9,19.2-.35,40.48-13.1,55.63-1.4,1.66-2.73,3.45-4.66,4.54-7-5.19-13.77-10.77-20.78-16.06,6.12-4.6,10.82-11.49,11.65-19.2-11-.21-22,.07-33.07-.13-.3-6.52,0-13.06-.14-19.59.07-1.8-.23-3.65.33-5.39Z" transform="translate(-787.95 -285.6)"/>
      <path class="cls-6" d="M992.53,401.64c5.63-4.54,11.37-8.89,17-13.36,1.4,2.59,2.27,5.44,3.9,7.91a38.93,38.93,0,0,0,22.81,17.2,45.65,45.65,0,0,0,20.11-.12,46.9,46.9,0,0,0,10.95-4.82c7,5.29,13.73,10.87,20.78,16.06a27.9,27.9,0,0,1-6.26,5.27c-10.51,7.44-23.53,10.4-36.24,10.72-12.83-.26-25.68-3.91-36.27-11.27a64.26,64.26,0,0,1-21.41-24.62,29.72,29.72,0,0,0,4.56-3Z" transform="translate(-787.95 -285.6)"/>
      <path class="cls-7" d="M905.34,478.74c4.54-3.58,11-3.83,16.29-1.88,1.87.9,4,2,4.93,4a28.88,28.88,0,0,1-2.86,2.78,16.11,16.11,0,0,0-5-3.2c-4.69-1.38-10.25,0-13.15,4.16-2.44,2.84-2.54,6.84-2,10.37a11.77,11.77,0,0,0,12.29,9.09c5,0,10-4.15,10-9.33-3.63-.26-7.26,0-10.89-.15a5.65,5.65,0,0,1-.28-3.63c5.09-.51,10.25-.16,15.38-.19.54,4.55-.16,9.67-3.61,13-5.64,6-15.82,6.06-21.92.82a16.51,16.51,0,0,1-1.84-23.27,15.55,15.55,0,0,1,2.68-2.51m104.93-2.22a18.9,18.9,0,0,1,4.38-.18c.2,10.27.05,20.55.08,30.82-1.42.53-3,.25-4.43.2-.11-10.29,0-20.57,0-30.84m-68.56,8.14a11.91,11.91,0,0,1,9.46,1.64c5.28,3.42,6.69,11.23,3.39,16.47-1.95,3.71-6.26,5.64-10.31,5.64a11.89,11.89,0,0,1-10.57-15.78,11.31,11.31,0,0,1,8-8m.53,4.27a6.94,6.94,0,0,0-4.5,6.22c-.27,2.72.26,5.81,2.59,7.55,3.55,3.13,9.92,1.16,11.08-3.45.58-2.9.63-6.5-1.78-8.62-1.76-2.13-4.87-2.51-7.39-1.7m24.58-4.2a12,12,0,0,1,8.84,1c6.17,3.16,7.85,12.1,3.88,17.61a11.75,11.75,0,0,1-9.65,5.07c-3.54-.28-7.28-1.81-9.24-4.91-2-2.61-2.32-6.07-2-9.24a11.63,11.63,0,0,1,8.14-9.57m1,4.14c-5.87,1.8-6.61,10.84-1.74,14.16a6.9,6.9,0,0,0,8.26-.36c3.6-2.81,3.76-8.66.81-12a7.13,7.13,0,0,0-7.33-1.82m16.48,3.72c1.17-4.68,5.64-8.7,10.65-8.21,2.43-.18,4.38,1.42,6.38,2.58.19-.63.39-1.26.59-1.88a31.88,31.88,0,0,1,3.91,0c.14,7.15,0,14.32.06,21.48.09,3.52-1.39,7.31-4.46,9.24-2.7,1.73-6.08,1.76-9.16,1.41a9.12,9.12,0,0,1-7.39-6.21c1-.79,2.25-1.81,3.66-1.54,1.2,1.22,2.21,2.72,3.79,3.51a6.88,6.88,0,0,0,8.33-2.33c1-1.5.94-3.36,1-5.09-2.34,1.49-4.91,3.13-7.82,2.82-2.89-.47-6-1.67-7.6-4.24a13.68,13.68,0,0,1-1.88-11.56m8.08-3.59c-4.87,2.28-5.49,9.52-2.08,13.31a6.58,6.58,0,0,0,7.74,1.15c4.8-3,4.91-11,.19-14.09a7.08,7.08,0,0,0-5.85-.37m29.19-1.47a10,10,0,0,1,7.92-3.13c3.7-.18,7.16,2.16,9,5.26,1.28,2.23,1.36,4.91,1.31,7.42-5.58.68-11.28,0-16.91.31-.49,4.24,4,7.72,8.06,6.71,2.3-.23,3.59-2.27,5-3.85,1.18.49,2.33,1,3.47,1.59-.77,3.27-4.06,5.43-7.17,6.22-3.31,1-6.89-.09-9.66-1.92-3-2.19-4.16-6.06-4.52-9.6.24-3.21,1.06-6.69,3.48-9m4.87,1.55c-1.94.69-2.82,2.75-3.4,4.55,4.07.05,8.14.08,12.2,0-.44-1.32-.78-2.8-1.88-3.72a6.93,6.93,0,0,0-6.89-.8" transform="translate(-787.95 -285.6)"/>
    </g>
  </g>
</svg>
