<?xml version="1.0" encoding="utf-8"?>
<!-- Generator: Adobe Illustrator 25.4.1, SVG Export Plug-In . SVG Version: 6.00 Build 0)  -->
<svg version="1.0" id="Layer_1" xmlns="http://www.w3.org/2000/svg" xmlns:xlink="http://www.w3.org/1999/xlink" x="0px" y="0px"
	 viewBox="0 0 1290.6 923.1" style="enable-background:new 0 0 1290.6 923.1;" xml:space="preserve">
<style type="text/css">
	.st0{fill:#FFFFFF;stroke:#5F6368;stroke-width:4;stroke-miterlimit:10;}
	.st1{fill:#606469;stroke:#5F6368;stroke-width:0.25;stroke-miterlimit:10;}
	.st2{fill:#EA4335;}
	.st3{fill:#FBBC04;}
	.st4{fill:#4284F4;}
	.st5{fill:#34A853;}
	.st6{fill:#606469;stroke:#5F6368;stroke-miterlimit:10;}
</style>
<path class="st0" d="M645.1,789h299c10.4,0,20.8,0,31.2,0c2.9,0,5.7-1.1,7.9-3.1c4.1-3.5,5.4-7.9,5.4-13c0-205,0-410,0-615
	c0-4.1-0.6-8.2-0.7-12.3c-0.1-2.7-1.5-4.8-3.1-6.7c-3.3-3.8-7.7-4.8-12.6-4.8c-217.9,0-435.8,0-653.7,0c-1.4-0.1-2.7,0-4,0.2
	c-3,0.5-5.8,1.9-8,4c-3.5,3.4-4.4,7.8-4.4,12.4c0,120.8,0,241.7,0,362.5c0,86.6,0,173.2,0,259.8c-0.1,2.5,0.2,4.9,1.1,7.2
	c2.6,5.7,7,9,13.8,9C426.3,789.1,535.7,789,645.1,789z"/>
<path class="st1" d="M658.9,557.4c6.2-0.2,12.4-0.2,18.6,0c4.8,0,9.2,3,11.9,6.9c2.2,3.4,2.3,7.6,1.7,11.5s-3.5,7-6.6,9.2
	c-5.6,3.5-12.3,1.9-18.5,2.3c-0.6,6.5,0,13.1-0.2,19.6c-2.3,0.2-4.6,0.2-6.9,0C658.8,590.4,658.7,573.9,658.9,557.4 M665.9,564.3
	c-0.4,5.3-0.5,10.7-0.1,16.1c4.3,0,8.6,0.3,12.9-0.2c5.8-2,7.3-10.4,2.6-14.3C676.8,563,671,564.7,665.9,564.3 M762.3,570.8
	c0.1-3.1-0.3-6.2,0.4-9.2c2.2,0,4.4,0,6.7,0.1c0.2,3,0,6,0.2,9c2.3,1.2,5.3,0.3,8,0.7c0.1,2.1,0.1,4.2,0,6.4c-2.7,0.1-5.4,0.2-8,0.5
	c0,6.4-0.1,12.8,0,19.3c-0.1,1.7,0.7,3.6,2.5,4c2,0,4,0,6-0.2c0.2,2.2,0,4.4-0.5,6.5c-3.2,0.2-6.5,0.6-9.7-0.3
	c-2.5-1.5-5.1-3.8-5.2-6.9c-0.7-7.4,0.2-14.8-0.5-22.2c-2-0.3-4.1-0.6-6.1-0.9c0-2,0-4,0.1-6C758.2,571.2,760.4,571.4,762.3,570.8
	 M697.1,577.7c5.5-10.3,23-10.3,28.6,0c1.6,3.4,1.2,7.3,1.3,10.9c-0.1,6.1,0.1,12.2-0.1,18.3c-1.8,0.1-3.6,0.1-5.4,0
	c-0.6-0.8-1.1-1.7-1.7-2.5c-4.1,2.6-8.9,5.3-13.8,3.6c-7.2-1.1-12.7-9.3-9.5-16.2c2-5.3,7.8-7.7,13.1-8.1c3.7-0.3,7.3,1,11,1.2
	c-0.4-4.3-3.6-8.5-8.3-8.2c-4.1-0.7-7.5,1.8-10.2,4.6C700.1,580.4,698.5,579.1,697.1,577.7 M702.8,596.6c0.3,3.6,4.2,5.6,7.5,5.4
	c5.2-0.4,9.4-4.6,9.7-9.8c-2.8-2.5-7-2.7-10.5-2.4C706,590.1,702.4,592.8,702.8,596.6 M790.5,574.1c3.2-1.9,6.5-4.4,10.6-4
	c6.9-0.6,13.1,5.5,13.1,12.2c0.1,8.2,0,16.3,0,24.5c-2.3,0.2-4.6,0.3-6.9,0.1c-0.3-8.1,0.4-16.2-0.4-24.3c-0.4-5.2-6.8-6.8-11-5.2
	c-3.7,1.6-5.7,5.6-5.8,9.5c-0.2,6.7,0.1,13.3,0,20c-2.4,0.2-4.7,0.2-7.1,0c-0.1-11.8-0.1-23.7,0-35.5c2.2-0.2,4.3-0.2,6.5,0.1
	C789.8,572,790.3,573.4,790.5,574.1 M826.7,573.3c6.7-5.2,17.4-4.3,23,2.1c3.5,4.2,5,9.7,4.3,15.2c-9,0.3-18.1,0-27.1,0.1
	c-0.8,6.6,6,12,12.3,10.9c3.7-0.1,5.9-3.3,8.4-5.6c2.2-0.2,4,1.4,5.8,2.2c-3.6,9-15.5,12.7-24,8.3
	C816.9,600.8,816,581.3,826.7,573.3 M826.8,584.7c6.5,0.3,13.1,0.3,19.7,0c-0.6-4.9-5-8.4-9.9-8
	C831.7,576.4,828.2,580.5,826.8,584.7 M872.5,570.5c2.5-0.8,5.2-0.4,7.8,0c0.2,2.4,0.3,4.8,0.2,7.2c-2.6-0.1-5.3-0.8-7.9-0.2
	c-3.7,1.5-6.2,5.1-6.1,9.1c-0.2,6.7,0.1,13.3,0,20c-2.3,0.3-4.7,0.3-7,0.1c-0.1-11.8-0.1-23.7,0-35.5c1.8-0.2,3.7-0.2,5.5-0.2
	c0.6,0.9,1.2,1.8,1.9,2.7C868.8,572.6,870.7,571.5,872.5,570.5 M739.7,574.8c2.6-1.4,4.9-3.7,8-3.7c1.6-0.1,3.3,0,4.9,0.1
	c0.1,2.2,0.1,4.4,0.1,6.5c-3.1,0.5-6.8-0.3-9.3,2c-1.7,1.6-3.3,3.7-3.3,6.2c-0.3,7.2,0.2,14.4-0.2,21.7c-2.2,0.2-4.5,0.2-6.8,0.1
	c-0.2-11.9-0.2-23.8,0-35.6c2-0.2,3.9-0.1,5.9,0.2C739.1,572.8,739.5,574.1,739.7,574.8L739.7,574.8z"/>
<path class="st2" d="M575.5,324c19.8-20.5,48.7-31.2,77-30.1c16.6,1.1,33.2,5.4,47.4,14.3c5.9,3.7,11.8,7.6,16.4,12.8
	c-4.5,5.2-9.7,9.8-14.5,14.8c-5,4.9-9.8,10.1-15,14.8c-8.1-7.4-18.2-13-29.2-14.5c-11.4-1.3-23.5-0.8-33.9,4.4
	c-11.7,5.4-21.4,14.2-27.9,25.3c-2.2,3.7-3.7,7.8-5.5,11.7c-11.6-8.5-22.7-17.7-34.2-26.4C560.8,340.9,567.4,331.7,575.5,324
	L575.5,324z"/>
<path class="st3" d="M556.2,351c11.5,8.7,22.6,17.8,34.2,26.4c-1.7,8.3-4.3,16.8-2.7,25.4c0.5,4.7,1.9,9.3,2.7,13.9
	c-9,7.1-18.2,14.1-27.2,21.3c-2.3,1.8-4.7,3.4-7.3,4.7c-6.3-12.4-9.9-26.1-10.5-40c-0.5-9.1,0.1-18.3,1.9-27.3
	C549.5,367.1,551.8,358.6,556.2,351L556.2,351z"/>
<path class="st4" d="M648.8,378.2c28.2,0,56.4,0,84.6,0c3.6,0,7.2-0.3,10.8,0.3c6.2,30.7-0.5,64.6-20.9,88.8
	c-2.2,2.6-4.4,5.5-7.4,7.2c-11.3-8.3-22-17.2-33.2-25.6c9.8-7.3,17.3-18.4,18.6-30.7c-17.6-0.3-35.2,0.1-52.8-0.2
	c-0.5-10.4,0-20.9-0.2-31.3C648.4,383.9,647.9,381,648.8,378.2L648.8,378.2z"/>
<path class="st5" d="M563.2,438.1c9-7.2,18.2-14.2,27.2-21.3c2.2,4.1,3.6,8.7,6.2,12.6c8.2,13.4,21.2,23.3,36.4,27.5
	c10.6,2.3,21.6,2.3,32.1-0.2c6.2-1.6,11.9-4.6,17.5-7.7c11.2,8.4,21.9,17.4,33.2,25.6c-2.7,3.5-6.4,5.9-10,8.4
	c-16.8,11.9-37.6,16.6-57.9,17.1c-20.5-0.4-41-6.2-57.9-18c-14.6-10-26.4-23.5-34.2-39.3C558.5,441.5,560.9,439.9,563.2,438.1
	L563.2,438.1z"/>
<path class="st6" d="M424,561.2c7.2-5.7,17.6-6.1,26-3c3,1.4,6.4,3.1,7.9,6.4c-1.4,1.6-2.9,3.1-4.6,4.4c-2.4-2-4.9-4.1-7.9-5.1
	c-7.5-2.2-16.4,0.1-21,6.6c-3.9,4.5-4.1,10.9-3.2,16.6c1.7,8.8,10.7,15.3,19.6,14.5c8,0.1,15.9-6.6,15.9-14.9
	c-5.8-0.4-11.6,0-17.4-0.2c-0.8-1.8-0.9-3.9-0.4-5.8c8.1-0.8,16.4-0.3,24.5-0.3c0.9,7.3-0.2,15.4-5.8,20.7c-9,9.6-25.3,9.7-35,1.3
	c-11.1-9.4-12.4-26.1-2.9-37.2C421,563.8,422.4,562.4,424,561.2 M591.5,557.7c2.3-0.4,4.7-0.5,7-0.3c0.3,16.4,0.1,32.8,0.1,49.2
	c-2.3,0.8-4.7,0.4-7.1,0.3C591.4,590.5,591.5,574.1,591.5,557.7 M482,570.7c5.1-1.1,10.8-0.5,15.1,2.6c8.4,5.5,10.7,17.9,5.4,26.3
	c-3.1,5.9-10,9-16.5,9c-4.4-0.5-8.9-2-12-5.2c-5.3-5-7-13.2-4.9-20C470.6,577.1,476,572.4,482,570.7 M482.9,577.5
	c-4.2,1.6-7,5.5-7.2,9.9c-0.4,4.3,0.4,9.3,4.1,12c5.7,5,15.9,1.8,17.7-5.5c0.9-4.6,1-10.4-2.9-13.8
	C491.9,576.8,486.9,576.2,482.9,577.5 M522.2,570.8c4.7-1,9.9-0.9,14.1,1.7c9.9,5.1,12.5,19.3,6.2,28.1c-3.2,5.2-9.4,8-15.4,8.1
	c-5.7-0.4-11.6-2.9-14.8-7.8c-3.2-4.2-3.7-9.7-3.2-14.8C509.8,578.9,515.5,572.9,522.2,570.8 M523.8,577.4
	c-9.4,2.9-10.6,17.3-2.8,22.6c3.8,2.6,9.7,2.6,13.2-0.6c5.7-4.5,6-13.8,1.3-19.1C532.6,577,527.8,576.2,523.8,577.4 M550.1,583.3
	c1.9-7.5,9-13.9,17-13.1c3.9-0.3,7,2.3,10.2,4.1c0.3-1,0.6-2,0.9-3c2.1-0.1,4.2-0.1,6.2,0c0.2,11.4,0,22.9,0.1,34.3
	c0.1,5.6-2.2,11.7-7.1,14.8c-4.3,2.8-9.7,2.8-14.6,2.3c-5.5-0.8-10.1-4.6-11.8-9.9c1.7-1.3,3.6-2.9,5.8-2.5c1.9,2,3.5,4.3,6,5.6
	c4.5,2.2,10.4,0.3,13.3-3.7c1.6-2.4,1.5-5.4,1.5-8.1c-3.7,2.4-7.9,5-12.5,4.5c-4.6-0.7-9.5-2.7-12.1-6.8
	C549.2,596.5,548.5,589.5,550.1,583.3 M563,577.6c-7.8,3.6-8.8,15.2-3.3,21.2c3.3,3.3,8.3,4,12.4,1.8c7.7-4.7,7.8-17.6,0.3-22.5
	C569.5,576.6,566.1,576.4,563,577.6 M609.6,575.2c3.3-3.5,7.9-5.3,12.7-5c5.9-0.3,11.4,3.5,14.4,8.4c2,3.6,2.2,7.8,2.1,11.9
	c-8.9,1.1-18,0-27,0.5c-0.8,6.8,6.5,12.3,12.9,10.7c3.7-0.4,5.7-3.6,7.9-6.1c1.9,0.8,3.7,1.7,5.5,2.5c-1.2,5.2-6.5,8.7-11.5,9.9
	c-5.3,1.6-11-0.1-15.4-3.1c-4.8-3.5-6.6-9.7-7.2-15.3C604.4,584.5,605.7,578.9,609.6,575.2 M617.3,577.7c-3.1,1.1-4.5,4.4-5.4,7.3
	c6.5,0.1,13,0.1,19.5,0c-0.7-2.1-1.2-4.5-3-6C625.4,576.5,620.9,576.4,617.3,577.7"/>
</svg>
