<svg id="Layer_1" data-name="Layer 1" xmlns="http://www.w3.org/2000/svg" width="452.04" height="452.04" viewBox="0 0 452.04 452.04">
  <defs>
    <style>
      .cls-1 {
        fill: #0040f7;
      }
    </style>
  </defs>
  <g id="Bazaar_Digital_Logo" data-name="Bazaar Digital Logo">
    <path class="cls-1" d="M656.67,274H311.6V726h55.22V329.19H750.31A107.21,107.21,0,0,0,656.67,274Z" transform="translate(-311.6 -273.98)"/>
    <path class="cls-1" d="M760,353.35H391V726h55.21V408.56H760a107.64,107.64,0,0,0,0-55.21Z" transform="translate(-311.6 -273.98)"/>
    <path class="cls-1" d="M750.31,432.71h-280V726h55.22V487.92H656.67A107.21,107.21,0,0,0,750.31,432.71Z" transform="translate(-311.6 -273.98)"/>
    <path class="cls-1" d="M703,715.48c2.32-1.12,4.63-2.34,6.87-3.63,1.49-.86,3-1.76,4.4-2.67.73-.47,1.45-.94,2.16-1.42,1.43-1,2.84-2,4.2-3,2.05-1.53,4.07-3.16,6-4.83,1.29-1.12,2.57-2.28,3.8-3.46s2.44-2.38,3.64-3.63a108.93,108.93,0,0,0,11.27-14,107,107,0,0,0-11.28-133.6c-1.18-1.25-2.4-2.47-3.63-3.64s-2.51-2.34-3.8-3.45c-1.94-1.68-4-3.31-6-4.84-1.37-1-2.78-2-4.2-3-.71-.48-1.43-1-2.15-1.42-2.16-1.38-4.41-2.71-6.67-3.94-1.51-.82-3.06-1.61-4.61-2.36a105.9,105.9,0,0,0-46.37-10.54h-107V726h107A106,106,0,0,0,703,715.48ZM609.2,631.36H577.31V544.58h86.78v31.89H609.2Z" transform="translate(-311.6 -273.98)"/>
  </g>
</svg>
